<svg width="470" height="143" viewBox="0 0 470 143" fill="none" xmlns="http://www.w3.org/2000/svg">
<g clip-path="url(#clip0_17_783)">
<path fill-rule="evenodd" clip-rule="evenodd" d="M33.5 34.5C30.6627 34.684 28.6627 36.018 27.5 38.5C17.4202 29.246 9.4202 18.413 3.5 6C5.2597 1.548 7.4264 1.381 10 5.5C15.5151 17.168 23.3484 26.835 33.5 34.5Z" fill="#DAD9D9"/>
<path fill-rule="evenodd" clip-rule="evenodd" d="M33.5 34.5C33.5 34.833 33.5 35.167 33.5 35.5C31.9991 36.752 30.3325 37.752 28.5 38.5C28.1667 38.5 27.8333 38.5 27.5 38.5C28.6627 36.018 30.6627 34.684 33.5 34.5Z" fill="#929191"/>
<path fill-rule="evenodd" clip-rule="evenodd" d="M33.5 35.5C44.8831 43.358 57.2165 49.358 70.5 53.5C72.4121 55.657 74.0787 57.991 75.5 60.5C57.9274 56.988 42.2607 49.655 28.5 38.5C30.3325 37.752 31.9991 36.752 33.5 35.5Z" fill="#D9D9D9"/>
<path fill-rule="evenodd" clip-rule="evenodd" d="M319.5 52.5C320.5 54.5 321.5 56.5 322.5 58.5C314.146 58.427 305.812 58.76 297.5 59.5C297.5 57.5 297.5 55.5 297.5 53.5C298.5 53.5 299.5 53.5 300.5 53.5C306.645 52.51 312.978 52.177 319.5 52.5Z" fill="#D6D6D5"/>
<path fill-rule="evenodd" clip-rule="evenodd" d="M321.5 52.5C333.678 52.172 345.678 52.505 357.5 53.5C353.402 54.272 350.069 56.272 347.5 59.5C339.337 58.556 331.337 58.223 323.5 58.5C324.043 58.44 324.376 58.107 324.5 57.5C323.048 56.06 322.048 54.394 321.5 52.5Z" fill="#D9D9D8"/>
<path fill-rule="evenodd" clip-rule="evenodd" d="M300.5 53.5C301.833 53.5 303.167 53.5 304.5 53.5C302.692 59.859 301.359 59.859 300.5 53.5Z" fill="#8A8A8A"/>
<path fill-rule="evenodd" clip-rule="evenodd" d="M357.5 53.5C375.688 54.737 393.355 58.404 410.5 64.5C412.898 67.571 414.898 70.905 416.5 74.5C395.544 65.095 373.544 60.095 350.5 59.5C352.647 57.263 354.98 55.263 357.5 53.5Z" fill="#D9D9D9"/>
<path fill-rule="evenodd" clip-rule="evenodd" d="M70.5 53.5C71.609 53.557 72.609 53.89 73.5 54.5C74.7945 56.907 76.4611 59.074 78.5 61C78.2716 61.399 77.9382 61.565 77.5 61.5C76.5084 61.672 75.8417 61.338 75.5 60.5C74.0787 57.991 72.4121 55.657 70.5 53.5Z" fill="#919191"/>
<path fill-rule="evenodd" clip-rule="evenodd" d="M279.5 54.5C282.625 53.521 285.958 53.187 289.5 53.5C288.425 57.938 290.092 59.938 294.5 59.5C291.713 60.477 288.713 60.81 285.5 60.5C285.5 58.5 285.5 56.5 285.5 54.5C283.5 54.5 281.5 54.5 279.5 54.5Z" fill="#D8D7D6"/>
<path fill-rule="evenodd" clip-rule="evenodd" d="M319.5 52.5C320.167 52.5 320.833 52.5 321.5 52.5C322.048 54.394 323.048 56.06 324.5 57.5C324.376 58.107 324.043 58.44 323.5 58.5C323.167 58.5 322.833 58.5 322.5 58.5C321.5 56.5 320.5 54.5 319.5 52.5Z" fill="#8A8A8A"/>
<path fill-rule="evenodd" clip-rule="evenodd" d="M262.5 55.5C264.833 55.5 267.167 55.5 269.5 55.5C269.079 57.91 267.746 59.743 265.5 61C265.728 61.399 266.062 61.565 266.5 61.5C264.735 62.461 262.735 62.795 260.5 62.5C260.5 62.167 260.5 61.833 260.5 61.5C262.308 60.082 262.975 58.082 262.5 55.5Z" fill="#D7D7D7"/>
<path fill-rule="evenodd" clip-rule="evenodd" d="M279.5 54.5C281.5 54.5 283.5 54.5 285.5 54.5C285.5 56.5 285.5 58.5 285.5 60.5C279.149 60.557 272.815 60.89 266.5 61.5C266.062 61.565 265.728 61.399 265.5 61C267.746 59.743 269.079 57.91 269.5 55.5C271.591 55.318 273.591 55.652 275.5 56.5C276.524 55.147 277.857 54.48 279.5 54.5Z" fill="#898989"/>
<path fill-rule="evenodd" clip-rule="evenodd" d="M289.5 53.5C292.167 53.5 294.833 53.5 297.5 53.5C297.5 55.5 297.5 57.5 297.5 59.5C296.5 59.5 295.5 59.5 294.5 59.5C290.092 59.938 288.425 57.938 289.5 53.5Z" fill="#8B8B8B"/>
<path fill-rule="evenodd" clip-rule="evenodd" d="M357.5 53.5C354.98 55.263 352.647 57.263 350.5 59.5C349.5 59.5 348.5 59.5 347.5 59.5C350.069 56.272 353.402 54.272 357.5 53.5Z" fill="#8D8D8D"/>
<path fill-rule="evenodd" clip-rule="evenodd" d="M249.5 56.5C251.167 56.5 252.833 56.5 254.5 56.5C254.5 58.5 254.5 60.5 254.5 62.5C251.455 62.508 248.455 62.841 245.5 63.5C246.315 62.163 247.482 61.163 249 60.5C249.49 59.207 249.657 57.873 249.5 56.5Z" fill="#D2D2D2"/>
<path fill-rule="evenodd" clip-rule="evenodd" d="M254.5 56.5C256.5 56.5 258.5 56.5 260.5 56.5C260.5 58.167 260.5 59.833 260.5 61.5C260.5 61.833 260.5 62.167 260.5 62.5C258.5 62.5 256.5 62.5 254.5 62.5C254.5 60.5 254.5 58.5 254.5 56.5Z" fill="#848484"/>
<path fill-rule="evenodd" clip-rule="evenodd" d="M249.5 56.5C249.657 57.873 249.49 59.207 249 60.5C247.482 61.163 246.315 62.163 245.5 63.5C244.5 63.5 243.5 63.5 242.5 63.5C240.748 61.754 239.415 59.754 238.5 57.5C242.135 56.886 245.802 56.552 249.5 56.5Z" fill="#8C8B8B"/>
<path fill-rule="evenodd" clip-rule="evenodd" d="M254.5 56.5C256.948 55.527 259.615 55.194 262.5 55.5C262.975 58.082 262.308 60.082 260.5 61.5C260.5 59.833 260.5 58.167 260.5 56.5C258.5 56.5 256.5 56.5 254.5 56.5Z" fill="#A3A2A2"/>
<path fill-rule="evenodd" clip-rule="evenodd" d="M234.5 57.5C235.833 57.5 237.167 57.5 238.5 57.5C239.415 59.754 240.748 61.754 242.5 63.5C228.49 64.503 214.49 65.503 200.5 66.5C202.025 64.784 203.025 62.784 203.5 60.5C212.167 59.833 220.833 59.167 229.5 58.5C229.791 59.649 230.624 60.316 232 60.5C234.77 60.596 235.604 59.596 234.5 57.5Z" fill="#D7D7D7"/>
<path fill-rule="evenodd" clip-rule="evenodd" d="M234.5 57.5C235.604 59.596 234.77 60.596 232 60.5C230.624 60.316 229.791 59.649 229.5 58.5C231.292 58.634 232.958 58.301 234.5 57.5Z" fill="#878787"/>
<path fill-rule="evenodd" clip-rule="evenodd" d="M73.5 54.5C102.045 61.545 131.045 64.212 160.5 62.5C161.529 64.517 162.529 66.517 163.5 68.5C144.421 69.006 125.421 68.339 106.5 66.5C108.316 64.863 110.316 63.363 112.5 62C109.426 62.203 106.759 63.537 104.5 66C104.728 66.399 105.062 66.565 105.5 66.5C96.117 65.935 86.784 64.268 77.5 61.5C77.9382 61.565 78.2716 61.399 78.5 61C76.4611 59.074 74.7945 56.907 73.5 54.5Z" fill="#D9D9D9"/>
<path fill-rule="evenodd" clip-rule="evenodd" d="M179.5 61.5C181.696 65.999 185.362 67.999 190.5 67.5C182.35 68.493 174.017 68.826 165.5 68.5C164.529 66.517 163.529 64.517 162.5 62.5C168.259 62.786 173.925 62.452 179.5 61.5Z" fill="#D9D8D8"/>
<path fill-rule="evenodd" clip-rule="evenodd" d="M203.5 60.5C203.025 62.784 202.025 64.784 200.5 66.5C197.272 67.414 193.939 67.747 190.5 67.5C185.362 67.999 181.696 65.999 179.5 61.5C182.518 61.335 185.518 61.502 188.5 62C191.589 65.308 194.255 65.141 196.5 61.5C198.743 60.526 201.076 60.192 203.5 60.5Z" fill="#8B8B8B"/>
<path fill-rule="evenodd" clip-rule="evenodd" d="M106.5 66.5C106.167 66.5 105.833 66.5 105.5 66.5C105.062 66.565 104.728 66.399 104.5 66C106.759 63.537 109.426 62.203 112.5 62C110.316 63.363 108.316 64.863 106.5 66.5Z" fill="#898989"/>
<path fill-rule="evenodd" clip-rule="evenodd" d="M160.5 62.5C161.167 62.5 161.833 62.5 162.5 62.5C163.529 64.517 164.529 66.517 165.5 68.5C164.833 68.5 164.167 68.5 163.5 68.5C162.529 66.517 161.529 64.517 160.5 62.5Z" fill="#8D8C8C"/>
<path fill-rule="evenodd" clip-rule="evenodd" d="M410.5 64.5C412.23 65.026 413.564 66.026 414.5 67.5C416.833 70.833 419.167 74.167 421.5 77.5C419.589 76.925 417.922 75.925 416.5 74.5C414.898 70.905 412.898 67.571 410.5 64.5Z" fill="#959595"/>
<path fill-rule="evenodd" clip-rule="evenodd" d="M414.5 67.5C422.125 69.976 428.792 73.976 434.5 79.5C432.445 80.559 431.111 82.225 430.5 84.5C427.786 81.785 424.786 79.451 421.5 77.5C419.167 74.167 416.833 70.833 414.5 67.5Z" fill="#D8D8D8"/>
<path fill-rule="evenodd" clip-rule="evenodd" d="M434.5 79.5C434.833 79.5 435.167 79.5 435.5 79.5C434.889 81.775 433.555 83.441 431.5 84.5C431.167 84.5 430.833 84.5 430.5 84.5C431.111 82.225 432.445 80.559 434.5 79.5Z" fill="#8D8D8D"/>
<path fill-rule="evenodd" clip-rule="evenodd" d="M435.5 79.5C452.568 94.97 462.235 114.303 464.5 137.5C461.865 134.921 459.699 131.921 458 128.5C457.601 128.728 457.435 129.062 457.5 129.5C453.259 112.026 444.592 97.026 431.5 84.5C433.555 83.441 434.889 81.775 435.5 79.5Z" fill="#D9D9D9"/>
<path fill-rule="evenodd" clip-rule="evenodd" d="M464.5 137.5C465.976 139.663 465.643 140.329 463.5 139.5C461.048 136.394 459.048 133.061 457.5 129.5C457.435 129.062 457.601 128.728 458 128.5C459.699 131.921 461.865 134.921 464.5 137.5Z" fill="#8E8E8E"/>
</g>
<defs>
<clipPath id="clip0_17_783">
<rect width="470" height="143" fill="white"/>
</clipPath>
</defs>
</svg>
