<svg width="365" height="247" viewBox="0 0 365 247" fill="none" xmlns="http://www.w3.org/2000/svg">
<g clip-path="url(#clip0_1_189)">
<path fill-rule="evenodd" clip-rule="evenodd" d="M183.5 5.5C188.48 13.453 192.98 21.786 197 30.5C202.983 36.819 209.816 41.986 217.5 46C219.452 48.074 221.285 50.241 223 52.5C228.078 62.99 233.411 73.323 239 83.5C246.579 88.409 253.579 94.075 260 100.5C269.381 112.092 278.881 123.592 288.5 135C287.167 135.667 285.833 135.667 284.5 135C279.5 130.667 274.5 126.333 269.5 122C264.872 120.303 260.205 120.136 255.5 121.5C255.167 125.5 254.833 129.5 254.5 133.5C252.061 128.426 250.227 123.093 249 117.5C247.92 115.004 246.586 112.67 245 110.5C244.785 113.856 244.785 117.189 245 120.5C234.641 109.238 222.141 101.404 207.5 97C198.339 92.254 189.339 87.254 180.5 82C176.844 77.707 173.177 73.373 169.5 69C164.167 68.667 158.833 68.333 153.5 68C160.135 60.364 167.135 53.03 174.5 46C179.077 44.768 183.744 43.935 188.5 43.5C189.94 35.386 187.273 29.053 180.5 24.5C175.049 29.447 170.549 35.114 167 41.5C163.075 43.751 159.408 46.417 156 49.5C150.667 58.167 145.333 66.833 140 75.5C136.589 78.415 132.756 80.581 128.5 82C141.673 88.414 154.006 96.081 165.5 105C169.858 109.557 173.858 114.39 177.5 119.5C174.447 120.165 171.447 119.665 168.5 118C159.783 111.366 150.116 106.532 139.5 103.5C130.648 104.311 122.314 106.811 114.5 111C107.833 111.667 101.167 111.667 94.5 111C97.4 108.603 99.733 105.77 101.5 102.5C96.855 99.023 92.355 95.356 88 91.5C85.858 97.037 86.358 102.37 89.5 107.5C82.778 106.579 77.111 108.745 72.5 114C69.776 114.27 67.109 114.77 64.5 115.5C63.833 114.833 63.167 114.167 62.5 113.5C58.952 115.441 55.286 117.107 51.5 118.5C50.702 116.922 50.202 115.256 50 113.5C43.823 117.588 37.823 121.922 32 126.5C31.8333 126.167 31.6667 125.833 31.5 125.5C39.652 116.848 47.986 108.348 56.5 100C60.558 99.66 64.558 98.993 68.5 98C74.199 92.635 79.533 86.969 84.5 81C85.5 80.333 86.5 80.333 87.5 81C92.532 86.367 97.865 91.367 103.5 96C104.5 96.667 105.5 96.667 106.5 96C111.544 90.624 116.211 84.958 120.5 79C125.055 75.555 130.055 72.888 135.5 71C141.626 62.587 147.126 53.753 152 44.5C154.346 41.495 157.346 39.495 161 38.5C160.918 34.152 161.918 30.152 164 26.5C171.073 19.931 177.573 12.931 183.5 5.5Z" fill="#060606"/>
<path fill-rule="evenodd" clip-rule="evenodd" d="M250.5 71.5C247.213 72.264 244.546 74.097 242.5 77C241.833 77.667 241.167 77.667 240.5 77C245.124 70.252 249.624 63.419 254 56.5C262.815 53.689 269.148 48.023 273 39.5C278.137 46.937 283.637 54.104 289.5 61C292.993 62.791 296.659 64.124 300.5 65C307.017 75.854 314.684 85.854 323.5 95C333.581 103.711 344.915 110.377 357.5 115C344.245 113.748 331.911 109.581 320.5 102.5C318.374 107.375 316.541 112.375 315 117.5C313.862 109.57 312.362 101.736 310.5 94C307.5 93.333 304.5 93.333 301.5 94C299.623 96.251 298.123 98.751 297 101.5C295.559 98.845 294.726 96.012 294.5 93C295.604 88.481 295.604 83.981 294.5 79.5C287.145 75.754 279.478 74.254 271.5 75C274.85 70.837 277.517 66.337 279.5 61.5C279.065 57.963 277.565 54.963 275 52.5C270.242 55.128 265.742 58.128 261.5 61.5C258.766 64.789 256.766 68.455 255.5 72.5C253.239 74.173 251.572 73.84 250.5 71.5Z" fill="#0B0B0B"/>
<path fill-rule="evenodd" clip-rule="evenodd" d="M203.5 65.5C210.284 63.536 216.618 64.702 222.5 69C227.699 75.232 232.532 81.732 237 88.5C241.448 92.297 245.948 95.964 250.5 99.5C250.167 99.833 249.833 100.167 249.5 100.5C230.782 93.156 215.448 81.489 203.5 65.5Z" fill="#F5F5F5"/>
<path fill-rule="evenodd" clip-rule="evenodd" d="M250.5 71.5C250.517 69.972 251.184 69.472 252.5 70C251.956 70.717 251.289 71.217 250.5 71.5Z" fill="#CACACA"/>
<path fill-rule="evenodd" clip-rule="evenodd" d="M92.5 118.5C129.693 116.656 166.359 120.156 202.5 129C221.96 133.932 241.294 139.265 260.5 145C285.254 150.717 309.588 149.384 333.5 141C344.653 136.521 354.153 129.688 362 120.5C354.864 133.628 344.364 143.461 330.5 150C305.549 159.778 279.882 162.111 253.5 157C226.715 149.888 199.715 143.554 172.5 138C132.353 131.015 92.019 129.682 51.5 134C35.514 136.329 20.1803 140.829 5.5 147.5C4.3044 147.154 4.3044 146.654 5.5 146C24.8812 133.871 45.881 125.871 68.5 122C76.668 120.992 84.668 119.825 92.5 118.5Z" fill="#070707"/>
<path fill-rule="evenodd" clip-rule="evenodd" d="M20.5 160.5C25.7163 160.134 30.7163 160.968 35.5 163C37.567 165.687 37.234 168.354 34.5 171C31.5104 170.848 28.5104 170.348 25.5 169.5C20.5017 170.016 19.5017 172.182 22.5 176C26.9926 178.079 31.326 180.412 35.5 183C40.179 187.737 40.679 192.904 37 198.5C27.2013 206.473 17.368 206.473 7.5 198.5C8.9336 195.953 10.6002 193.619 12.5 191.5C15.6285 193.399 18.9618 194.733 22.5 195.5C27.0016 195.706 28.8349 193.706 28 189.5C24.41 186.954 20.5766 184.787 16.5 183C11.8468 179.212 10.3468 174.378 12 168.5C14.1565 165.024 16.9898 162.357 20.5 160.5Z" fill="#171715"/>
<path fill-rule="evenodd" clip-rule="evenodd" d="M71.5 161.5C74.898 161.18 78.232 161.513 81.5 162.5C87.13 176.087 92.464 189.754 97.5 203.5C94.102 203.82 90.768 203.487 87.5 202.5C86.423 200.271 85.756 197.937 85.5 195.5C79.5 195.5 73.5 195.5 67.5 195.5C66.84 202.954 62.84 205.288 55.5 202.5C61.124 188.924 66.457 175.257 71.5 161.5Z" fill="#161514"/>
<path fill-rule="evenodd" clip-rule="evenodd" d="M115.5 161.5C121.842 161.334 128.175 161.5 134.5 162C143.024 167.484 143.691 173.818 136.5 181C142.412 182.073 145.078 185.573 144.5 191.5C144.953 196.429 142.953 199.929 138.5 202C130.92 203.396 123.253 203.896 115.5 203.5C115.5 189.5 115.5 175.5 115.5 161.5Z" fill="#121210"/>
<path fill-rule="evenodd" clip-rule="evenodd" d="M177.5 161.5C180.833 161.5 184.167 161.5 187.5 161.5C192.431 175.289 197.765 188.955 203.5 202.5C196.554 205.111 192.221 202.945 190.5 196C184.804 195.17 179.137 195.337 173.5 196.5C172.423 198.729 171.756 201.063 171.5 203.5C168.167 203.5 164.833 203.5 161.5 203.5C166.634 189.434 171.967 175.434 177.5 161.5Z" fill="#161514"/>
<path fill-rule="evenodd" clip-rule="evenodd" d="M230.5 161.5C230.5 172.833 230.5 184.167 230.5 195.5C235.5 195.5 240.5 195.5 245.5 195.5C245.5 198.167 245.5 200.833 245.5 203.5C237.5 203.5 229.5 203.5 221.5 203.5C221.5 189.5 221.5 175.5 221.5 161.5C224.5 161.5 227.5 161.5 230.5 161.5Z" fill="#11100E"/>
<path fill-rule="evenodd" clip-rule="evenodd" d="M230.5 161.5C231.495 172.321 231.828 183.321 231.5 194.5C236.363 194.181 241.03 194.514 245.5 195.5C240.5 195.5 235.5 195.5 230.5 195.5C230.5 184.167 230.5 172.833 230.5 161.5Z" fill="#CBCAC9"/>
<path fill-rule="evenodd" clip-rule="evenodd" d="M278.5 161.5C281.572 161.183 284.572 161.516 287.5 162.5C293.235 176.045 298.569 189.711 303.5 203.5C300.167 203.5 296.833 203.5 293.5 203.5C293.444 196.665 289.944 193.999 283 195.5C280.167 195.667 277.333 195.833 274.5 196C272.779 202.945 268.446 205.111 261.5 202.5C266.979 188.723 272.646 175.057 278.5 161.5Z" fill="#161513"/>
<path fill-rule="evenodd" clip-rule="evenodd" d="M346.5 185.5C346.783 186.289 347.283 186.956 348 187.5C348.5 178.84 348.666 170.173 348.5 161.5C351.5 161.5 354.5 161.5 357.5 161.5C357.5 175.5 357.5 189.5 357.5 203.5C354.102 203.82 350.768 203.487 347.5 202.5C342.473 194.483 337.473 186.483 332.5 178.5C332.44 177.957 332.107 177.624 331.5 177.5C330.502 186.141 330.169 194.808 330.5 203.5C327.5 203.5 324.5 203.5 321.5 203.5C321.5 189.5 321.5 175.5 321.5 161.5C324.85 161.335 328.183 161.502 331.5 162C336.635 169.777 341.635 177.61 346.5 185.5Z" fill="#12110F"/>
<path fill-rule="evenodd" clip-rule="evenodd" d="M348.5 161.5C348.666 170.173 348.5 178.84 348 187.5C347.283 186.956 346.783 186.289 346.5 185.5C347.167 177.5 347.833 169.5 348.5 161.5Z" fill="#8D8C8B"/>
<path fill-rule="evenodd" clip-rule="evenodd" d="M128.5 169.5C127.5 169.5 126.5 169.5 125.5 169.5C125.5 172.167 125.5 174.833 125.5 177.5C126.5 177.5 127.5 177.5 128.5 177.5C127.432 178.434 126.099 178.768 124.5 178.5C124.5 175.167 124.5 171.833 124.5 168.5C126.099 168.232 127.432 168.566 128.5 169.5Z" fill="#8E8E8D"/>
<path fill-rule="evenodd" clip-rule="evenodd" d="M128.5 169.5C131.955 170.128 133.122 172.128 132 175.5C131.184 176.823 130.017 177.489 128.5 177.5C127.5 177.5 126.5 177.5 125.5 177.5C125.5 174.833 125.5 172.167 125.5 169.5C126.5 169.5 127.5 169.5 128.5 169.5Z" fill="#EFEFEF"/>
<path fill-rule="evenodd" clip-rule="evenodd" d="M75.5 175.5C76.75 175.577 77.583 176.244 78 177.5C79.43 180.353 80.263 183.353 80.5 186.5C77.833 186.5 75.167 186.5 72.5 186.5C73.2 182.763 74.2 179.096 75.5 175.5Z" fill="#EEEDED"/>
<path fill-rule="evenodd" clip-rule="evenodd" d="M181.5 174.5C184.219 177.952 185.885 181.952 186.5 186.5C183.428 186.817 180.428 186.484 177.5 185.5C179.238 181.951 180.571 178.284 181.5 174.5Z" fill="#ECECEC"/>
<path fill-rule="evenodd" clip-rule="evenodd" d="M282.5 174.5C284.338 177.981 286.004 181.647 287.5 185.5C284.572 186.484 281.572 186.817 278.5 186.5C279.27 182.297 280.604 178.297 282.5 174.5Z" fill="#EAEAEA"/>
<path fill-rule="evenodd" clip-rule="evenodd" d="M332.5 178.5C331.833 186.833 331.167 195.167 330.5 203.5C330.169 194.808 330.502 186.141 331.5 177.5C332.107 177.624 332.44 177.957 332.5 178.5Z" fill="#646462"/>
<path fill-rule="evenodd" clip-rule="evenodd" d="M130.5 186.5C128.833 186.5 127.167 186.5 125.5 186.5C125.5 189.5 125.5 192.5 125.5 195.5C127.5 195.5 129.5 195.5 131.5 195.5C129.393 196.468 127.059 196.802 124.5 196.5C124.5 192.833 124.5 189.167 124.5 185.5C126.735 185.205 128.735 185.539 130.5 186.5Z" fill="#8B8A89"/>
<path fill-rule="evenodd" clip-rule="evenodd" d="M130.5 186.5C134.254 187.828 135.421 190.494 134 194.5C133.329 195.252 132.496 195.586 131.5 195.5C129.5 195.5 127.5 195.5 125.5 195.5C125.5 192.5 125.5 189.5 125.5 186.5C127.167 186.5 128.833 186.5 130.5 186.5Z" fill="#FBFBFB"/>
<path fill-rule="evenodd" clip-rule="evenodd" d="M95.5 220.5C95.5 223.5 95.5 226.5 95.5 229.5C99.371 229.815 103.038 229.482 106.5 228.5C106.187 225.753 106.52 223.086 107.5 220.5C108.833 227.167 108.833 233.833 107.5 240.5C106.516 237.572 106.183 234.572 106.5 231.5C103.038 230.518 99.371 230.185 95.5 230.5C95.5 233.833 95.5 237.167 95.5 240.5C94.18 237.572 93.514 234.239 93.5 230.5C93.514 226.761 94.18 223.428 95.5 220.5Z" fill="#0F0F0C"/>
<path fill-rule="evenodd" clip-rule="evenodd" d="M140.5 220.5C150.167 220.11 154 224.777 152 234.5C149.983 239.924 146.15 241.758 140.5 240C139.333 238.833 138.167 237.667 137 236.5C136.333 232.5 136.333 228.5 137 224.5C137.69 222.65 138.856 221.316 140.5 220.5Z" fill="#232221"/>
<path fill-rule="evenodd" clip-rule="evenodd" d="M190.5 233.5C190.783 234.289 191.283 234.956 192 235.5C192.499 230.511 192.666 225.511 192.5 220.5C194.459 226.75 195.126 233.416 194.5 240.5C193.325 240.719 192.325 240.386 191.5 239.5C188.823 235.471 186.156 231.471 183.5 227.5C183.217 226.711 182.717 226.044 182 225.5C181.501 230.489 181.334 235.489 181.5 240.5C179.541 234.25 178.874 227.584 179.5 220.5C180.675 220.281 181.675 220.614 182.5 221.5C185.177 225.529 187.844 229.529 190.5 233.5Z" fill="#171615"/>
<path fill-rule="evenodd" clip-rule="evenodd" d="M192.5 220.5C192.666 225.511 192.499 230.511 192 235.5C191.283 234.956 190.783 234.289 190.5 233.5C191.167 229.167 191.833 224.833 192.5 220.5Z" fill="#919191"/>
<path fill-rule="evenodd" clip-rule="evenodd" d="M222.5 220.5C226.555 220.176 230.555 220.509 234.5 221.5C231.232 222.487 227.898 222.82 224.5 222.5C224.5 224.5 224.5 226.5 224.5 228.5C227.5 228.5 230.5 228.5 233.5 228.5C233.5 229.5 233.5 230.5 233.5 231.5C230.5 231.5 227.5 231.5 224.5 231.5C224.5 233.833 224.5 236.167 224.5 238.5C227.898 238.18 231.232 238.513 234.5 239.5C230.555 240.491 226.555 240.824 222.5 240.5C222.5 233.833 222.5 227.167 222.5 220.5Z" fill="#1F1F1D"/>
<path fill-rule="evenodd" clip-rule="evenodd" d="M259.5 221.5C260.251 220.427 261.251 220.26 262.5 221C264.041 223.916 265.707 226.749 267.5 229.5C269.253 226.995 270.753 224.329 272 221.5C273.049 220.483 274.216 220.316 275.5 221C271.035 226.763 268.368 233.263 267.5 240.5C266.722 233.288 264.056 226.955 259.5 221.5Z" fill="#201F1E"/>
<path fill-rule="evenodd" clip-rule="evenodd" d="M141.5 222.5C149.121 222.946 151.621 226.946 149 234.5C145.667 239.833 142.333 239.833 139 234.5C137.773 229.938 138.607 225.938 141.5 222.5Z" fill="#F8F7F7"/>
<path fill-rule="evenodd" clip-rule="evenodd" d="M183.5 227.5C182.833 231.833 182.167 236.167 181.5 240.5C181.334 235.489 181.501 230.489 182 225.5C182.717 226.044 183.217 226.711 183.5 227.5Z" fill="#B7B6B6"/>
<path fill-rule="evenodd" clip-rule="evenodd" d="M95.5 220.5C96.473 222.948 96.806 225.615 96.5 228.5C99.833 228.5 103.167 228.5 106.5 228.5C103.038 229.482 99.371 229.815 95.5 229.5C95.5 226.5 95.5 223.5 95.5 220.5Z" fill="#787776"/>
<path fill-rule="evenodd" clip-rule="evenodd" d="M106.5 231.5C103.167 231.5 99.833 231.5 96.5 231.5C96.81 234.713 96.477 237.713 95.5 240.5C95.5 237.167 95.5 233.833 95.5 230.5C99.371 230.185 103.038 230.518 106.5 231.5Z" fill="#787876"/>
</g>
<defs>
<clipPath id="clip0_1_189">
<rect width="365" height="247" fill="white"/>
</clipPath>
</defs>
</svg>
