<svg width="422" height="493" viewBox="0 0 422 493" fill="none" xmlns="http://www.w3.org/2000/svg">
<g clip-path="url(#clip0_1_189)">
<path fill-rule="evenodd" clip-rule="evenodd" d="M211.5 3.5C281.139 44.3218 350.806 85.1551 420.5 126C421.164 144.428 421.497 162.928 421.5 181.5C420.942 244.166 420.442 306.833 420 369.5C349.581 409.627 279.081 449.627 208.5 489.5C139.167 448.833 69.833 408.167 0.500001 367.5C-0.870799 286.16 -0.537399 204.826 1.5 123.5C71.563 83.4729 141.563 43.4729 211.5 3.5Z" fill="#FBCC23"/>
<path fill-rule="evenodd" clip-rule="evenodd" d="M210.5 20.5C275.445 58.31 340.445 96.1434 405.5 134C406.8 209.772 406.466 285.606 404.5 361.5C339.236 398.38 274.069 435.38 209 472.5C144.185 434.759 79.518 396.759 15 358.5C14.8333 328.167 14.6667 297.833 14.5 267.5C14.3316 222.151 14.9982 176.818 16.5 131.5C81.555 94.9787 146.222 57.9787 210.5 20.5Z" fill="#FDFDFD"/>
<path fill-rule="evenodd" clip-rule="evenodd" d="M210.5 102.5C215.48 110.453 219.98 118.786 224 127.5C229.983 133.819 236.816 138.986 244.5 143C246.452 145.074 248.285 147.241 250 149.5C255.078 159.99 260.411 170.323 266 180.5C273.579 185.409 280.579 191.075 287 197.5C296.381 209.092 305.881 220.592 315.5 232C314.167 232.667 312.833 232.667 311.5 232C306.5 227.667 301.5 223.333 296.5 219C291.872 217.303 287.205 217.136 282.5 218.5C282.167 222.5 281.833 226.5 281.5 230.5C279.061 225.426 277.227 220.093 276 214.5C274.92 212.004 273.586 209.67 272 207.5C271.785 210.856 271.785 214.189 272 217.5C261.641 206.238 249.141 198.404 234.5 194C225.339 189.254 216.339 184.254 207.5 179C203.844 174.707 200.177 170.373 196.5 166C191.167 165.667 185.833 165.333 180.5 165C187.135 157.364 194.135 150.03 201.5 143C206.077 141.768 210.744 140.935 215.5 140.5C216.94 132.386 214.273 126.053 207.5 121.5C202.049 126.447 197.549 132.114 194 138.5C190.075 140.751 186.408 143.417 183 146.5C177.667 155.167 172.333 163.833 167 172.5C163.589 175.415 159.756 177.581 155.5 179C168.673 185.414 181.006 193.081 192.5 202C196.858 206.557 200.858 211.39 204.5 216.5C201.447 217.165 198.447 216.665 195.5 215C186.783 208.366 177.116 203.532 166.5 200.5C157.648 201.311 149.314 203.811 141.5 208C134.833 208.667 128.167 208.667 121.5 208C124.4 205.603 126.733 202.77 128.5 199.5C123.855 196.023 119.355 192.356 115 188.5C112.858 194.037 113.358 199.37 116.5 204.5C109.778 203.579 104.111 205.745 99.5 211C96.776 211.27 94.109 211.77 91.5 212.5C90.833 211.833 90.167 211.167 89.5 210.5C85.952 212.441 82.286 214.107 78.5 215.5C77.702 213.922 77.202 212.256 77 210.5C70.823 214.588 64.823 218.922 59 223.5C58.8333 223.167 58.6667 222.833 58.5 222.5C66.652 213.848 74.986 205.348 83.5 197C87.558 196.66 91.558 195.993 95.5 195C101.199 189.635 106.533 183.969 111.5 178C112.5 177.333 113.5 177.333 114.5 178C119.532 183.367 124.865 188.367 130.5 193C131.5 193.667 132.5 193.667 133.5 193C138.544 187.624 143.211 181.958 147.5 176C152.055 172.555 157.055 169.888 162.5 168C168.626 159.587 174.126 150.753 179 141.5C181.346 138.495 184.346 136.495 188 135.5C187.918 131.152 188.918 127.152 191 123.5C198.073 116.931 204.573 109.931 210.5 102.5Z" fill="#060606"/>
<path fill-rule="evenodd" clip-rule="evenodd" d="M277.5 168.5C274.213 169.264 271.546 171.097 269.5 174C268.833 174.667 268.167 174.667 267.5 174C272.124 167.252 276.624 160.419 281 153.5C289.815 150.689 296.148 145.023 300 136.5C305.137 143.937 310.637 151.104 316.5 158C319.993 159.791 323.659 161.124 327.5 162C334.017 172.854 341.684 182.854 350.5 192C360.581 200.711 371.915 207.377 384.5 212C371.245 210.748 358.911 206.581 347.5 199.5C345.374 204.375 343.541 209.375 342 214.5C340.862 206.57 339.362 198.736 337.5 191C334.5 190.333 331.5 190.333 328.5 191C326.623 193.251 325.123 195.751 324 198.5C322.559 195.845 321.726 193.012 321.5 190C322.604 185.481 322.604 180.981 321.5 176.5C314.145 172.754 306.478 171.254 298.5 172C301.85 167.837 304.517 163.337 306.5 158.5C306.065 154.963 304.565 151.963 302 149.5C297.242 152.128 292.742 155.128 288.5 158.5C285.766 161.789 283.766 165.455 282.5 169.5C280.239 171.173 278.572 170.84 277.5 168.5Z" fill="#0B0B0B"/>
<path fill-rule="evenodd" clip-rule="evenodd" d="M230.5 162.5C237.284 160.536 243.618 161.702 249.5 166C254.699 172.232 259.532 178.732 264 185.5C268.448 189.297 272.948 192.964 277.5 196.5C277.167 196.833 276.833 197.167 276.5 197.5C257.782 190.156 242.448 178.489 230.5 162.5Z" fill="#F5F5F5"/>
<path fill-rule="evenodd" clip-rule="evenodd" d="M277.5 168.5C277.517 166.972 278.184 166.472 279.5 167C278.956 167.717 278.289 168.217 277.5 168.5Z" fill="#CACACA"/>
<path fill-rule="evenodd" clip-rule="evenodd" d="M119.5 215.5C156.693 213.656 193.359 217.156 229.5 226C248.96 230.932 268.294 236.265 287.5 242C312.254 247.717 336.588 246.384 360.5 238C371.653 233.521 381.153 226.688 389 217.5C381.864 230.628 371.364 240.461 357.5 247C332.549 256.778 306.882 259.111 280.5 254C253.715 246.888 226.715 240.554 199.5 235C159.353 228.015 119.019 226.682 78.5 231C62.514 233.329 47.1803 237.829 32.5 244.5C31.3044 244.154 31.3044 243.654 32.5 243C51.8812 230.871 72.881 222.871 95.5 219C103.668 217.992 111.668 216.825 119.5 215.5Z" fill="#070707"/>
<path fill-rule="evenodd" clip-rule="evenodd" d="M47.5 257.5C52.7163 257.134 57.7163 257.968 62.5 260C64.567 262.687 64.234 265.354 61.5 268C58.5104 267.848 55.5104 267.348 52.5 266.5C47.5017 267.016 46.5017 269.182 49.5 273C53.9926 275.079 58.326 277.412 62.5 280C67.179 284.737 67.679 289.904 64 295.5C54.2013 303.473 44.368 303.473 34.5 295.5C35.9336 292.953 37.6002 290.619 39.5 288.5C42.6285 290.399 45.9618 291.733 49.5 292.5C54.0016 292.706 55.8349 290.706 55 286.5C51.41 283.954 47.5766 281.787 43.5 280C38.8468 276.212 37.3468 271.378 39 265.5C41.1565 262.024 43.9898 259.357 47.5 257.5Z" fill="#171715"/>
<path fill-rule="evenodd" clip-rule="evenodd" d="M98.5 258.5C101.898 258.18 105.232 258.513 108.5 259.5C114.13 273.087 119.464 286.754 124.5 300.5C121.102 300.82 117.768 300.487 114.5 299.5C113.423 297.271 112.756 294.937 112.5 292.5C106.5 292.5 100.5 292.5 94.5 292.5C93.84 299.954 89.84 302.288 82.5 299.5C88.124 285.924 93.457 272.257 98.5 258.5Z" fill="#161514"/>
<path fill-rule="evenodd" clip-rule="evenodd" d="M142.5 258.5C148.842 258.334 155.175 258.5 161.5 259C170.024 264.484 170.691 270.818 163.5 278C169.412 279.073 172.078 282.573 171.5 288.5C171.953 293.429 169.953 296.929 165.5 299C157.92 300.396 150.253 300.896 142.5 300.5C142.5 286.5 142.5 272.5 142.5 258.5Z" fill="#121210"/>
<path fill-rule="evenodd" clip-rule="evenodd" d="M204.5 258.5C207.833 258.5 211.167 258.5 214.5 258.5C219.431 272.289 224.765 285.955 230.5 299.5C223.554 302.111 219.221 299.945 217.5 293C211.804 292.17 206.137 292.337 200.5 293.5C199.423 295.729 198.756 298.063 198.5 300.5C195.167 300.5 191.833 300.5 188.5 300.5C193.634 286.434 198.967 272.434 204.5 258.5Z" fill="#161514"/>
<path fill-rule="evenodd" clip-rule="evenodd" d="M257.5 258.5C257.5 269.833 257.5 281.167 257.5 292.5C262.5 292.5 267.5 292.5 272.5 292.5C272.5 295.167 272.5 297.833 272.5 300.5C264.5 300.5 256.5 300.5 248.5 300.5C248.5 286.5 248.5 272.5 248.5 258.5C251.5 258.5 254.5 258.5 257.5 258.5Z" fill="#11100E"/>
<path fill-rule="evenodd" clip-rule="evenodd" d="M257.5 258.5C258.495 269.321 258.828 280.321 258.5 291.5C263.363 291.181 268.03 291.514 272.5 292.5C267.5 292.5 262.5 292.5 257.5 292.5C257.5 281.167 257.5 269.833 257.5 258.5Z" fill="#CBCAC9"/>
<path fill-rule="evenodd" clip-rule="evenodd" d="M305.5 258.5C308.572 258.183 311.572 258.516 314.5 259.5C320.235 273.045 325.569 286.711 330.5 300.5C327.167 300.5 323.833 300.5 320.5 300.5C320.444 293.665 316.944 290.999 310 292.5C307.167 292.667 304.333 292.833 301.5 293C299.779 299.945 295.446 302.111 288.5 299.5C293.979 285.723 299.646 272.057 305.5 258.5Z" fill="#161513"/>
<path fill-rule="evenodd" clip-rule="evenodd" d="M373.5 282.5C373.783 283.289 374.283 283.956 375 284.5C375.5 275.84 375.666 267.173 375.5 258.5C378.5 258.5 381.5 258.5 384.5 258.5C384.5 272.5 384.5 286.5 384.5 300.5C381.102 300.82 377.768 300.487 374.5 299.5C369.473 291.483 364.473 283.483 359.5 275.5C359.44 274.957 359.107 274.624 358.5 274.5C357.502 283.141 357.169 291.808 357.5 300.5C354.5 300.5 351.5 300.5 348.5 300.5C348.5 286.5 348.5 272.5 348.5 258.5C351.85 258.335 355.183 258.502 358.5 259C363.635 266.777 368.635 274.61 373.5 282.5Z" fill="#12110F"/>
<path fill-rule="evenodd" clip-rule="evenodd" d="M375.5 258.5C375.666 267.173 375.5 275.84 375 284.5C374.283 283.956 373.783 283.289 373.5 282.5C374.167 274.5 374.833 266.5 375.5 258.5Z" fill="#8D8C8B"/>
<path fill-rule="evenodd" clip-rule="evenodd" d="M155.5 266.5C154.5 266.5 153.5 266.5 152.5 266.5C152.5 269.167 152.5 271.833 152.5 274.5C153.5 274.5 154.5 274.5 155.5 274.5C154.432 275.434 153.099 275.768 151.5 275.5C151.5 272.167 151.5 268.833 151.5 265.5C153.099 265.232 154.432 265.566 155.5 266.5Z" fill="#8E8E8D"/>
<path fill-rule="evenodd" clip-rule="evenodd" d="M155.5 266.5C158.955 267.128 160.122 269.128 159 272.5C158.184 273.823 157.017 274.489 155.5 274.5C154.5 274.5 153.5 274.5 152.5 274.5C152.5 271.833 152.5 269.167 152.5 266.5C153.5 266.5 154.5 266.5 155.5 266.5Z" fill="#EFEFEF"/>
<path fill-rule="evenodd" clip-rule="evenodd" d="M102.5 272.5C103.75 272.577 104.583 273.244 105 274.5C106.43 277.353 107.263 280.353 107.5 283.5C104.833 283.5 102.167 283.5 99.5 283.5C100.2 279.763 101.2 276.096 102.5 272.5Z" fill="#EEEDED"/>
<path fill-rule="evenodd" clip-rule="evenodd" d="M208.5 271.5C211.219 274.952 212.885 278.952 213.5 283.5C210.428 283.817 207.428 283.484 204.5 282.5C206.238 278.951 207.571 275.284 208.5 271.5Z" fill="#ECECEC"/>
<path fill-rule="evenodd" clip-rule="evenodd" d="M309.5 271.5C311.338 274.981 313.004 278.647 314.5 282.5C311.572 283.484 308.572 283.817 305.5 283.5C306.27 279.297 307.604 275.297 309.5 271.5Z" fill="#EAEAEA"/>
<path fill-rule="evenodd" clip-rule="evenodd" d="M359.5 275.5C358.833 283.833 358.167 292.167 357.5 300.5C357.169 291.808 357.502 283.141 358.5 274.5C359.107 274.624 359.44 274.957 359.5 275.5Z" fill="#646462"/>
<path fill-rule="evenodd" clip-rule="evenodd" d="M157.5 283.5C155.833 283.5 154.167 283.5 152.5 283.5C152.5 286.5 152.5 289.5 152.5 292.5C154.5 292.5 156.5 292.5 158.5 292.5C156.393 293.468 154.059 293.802 151.5 293.5C151.5 289.833 151.5 286.167 151.5 282.5C153.735 282.205 155.735 282.539 157.5 283.5Z" fill="#8B8A89"/>
<path fill-rule="evenodd" clip-rule="evenodd" d="M157.5 283.5C161.254 284.828 162.421 287.494 161 291.5C160.329 292.252 159.496 292.586 158.5 292.5C156.5 292.5 154.5 292.5 152.5 292.5C152.5 289.5 152.5 286.5 152.5 283.5C154.167 283.5 155.833 283.5 157.5 283.5Z" fill="#FBFBFB"/>
<path fill-rule="evenodd" clip-rule="evenodd" d="M122.5 317.5C122.5 320.5 122.5 323.5 122.5 326.5C126.371 326.815 130.038 326.482 133.5 325.5C133.187 322.753 133.52 320.086 134.5 317.5C135.833 324.167 135.833 330.833 134.5 337.5C133.516 334.572 133.183 331.572 133.5 328.5C130.038 327.518 126.371 327.185 122.5 327.5C122.5 330.833 122.5 334.167 122.5 337.5C121.18 334.572 120.514 331.239 120.5 327.5C120.514 323.761 121.18 320.428 122.5 317.5Z" fill="#0F0F0C"/>
<path fill-rule="evenodd" clip-rule="evenodd" d="M167.5 317.5C177.167 317.11 181 321.777 179 331.5C176.983 336.924 173.15 338.758 167.5 337C166.333 335.833 165.167 334.667 164 333.5C163.333 329.5 163.333 325.5 164 321.5C164.69 319.65 165.856 318.316 167.5 317.5Z" fill="#232221"/>
<path fill-rule="evenodd" clip-rule="evenodd" d="M217.5 330.5C217.783 331.289 218.283 331.956 219 332.5C219.499 327.511 219.666 322.511 219.5 317.5C221.459 323.75 222.126 330.416 221.5 337.5C220.325 337.719 219.325 337.386 218.5 336.5C215.823 332.471 213.156 328.471 210.5 324.5C210.217 323.711 209.717 323.044 209 322.5C208.501 327.489 208.334 332.489 208.5 337.5C206.541 331.25 205.874 324.584 206.5 317.5C207.675 317.281 208.675 317.614 209.5 318.5C212.177 322.529 214.844 326.529 217.5 330.5Z" fill="#171615"/>
<path fill-rule="evenodd" clip-rule="evenodd" d="M219.5 317.5C219.666 322.511 219.499 327.511 219 332.5C218.283 331.956 217.783 331.289 217.5 330.5C218.167 326.167 218.833 321.833 219.5 317.5Z" fill="#919191"/>
<path fill-rule="evenodd" clip-rule="evenodd" d="M249.5 317.5C253.555 317.176 257.555 317.509 261.5 318.5C258.232 319.487 254.898 319.82 251.5 319.5C251.5 321.5 251.5 323.5 251.5 325.5C254.5 325.5 257.5 325.5 260.5 325.5C260.5 326.5 260.5 327.5 260.5 328.5C257.5 328.5 254.5 328.5 251.5 328.5C251.5 330.833 251.5 333.167 251.5 335.5C254.898 335.18 258.232 335.513 261.5 336.5C257.555 337.491 253.555 337.824 249.5 337.5C249.5 330.833 249.5 324.167 249.5 317.5Z" fill="#1F1F1D"/>
<path fill-rule="evenodd" clip-rule="evenodd" d="M286.5 318.5C287.251 317.427 288.251 317.26 289.5 318C291.041 320.916 292.707 323.749 294.5 326.5C296.253 323.995 297.753 321.329 299 318.5C300.049 317.483 301.216 317.316 302.5 318C298.035 323.763 295.368 330.263 294.5 337.5C293.722 330.288 291.056 323.955 286.5 318.5Z" fill="#201F1E"/>
<path fill-rule="evenodd" clip-rule="evenodd" d="M168.5 319.5C176.121 319.946 178.621 323.946 176 331.5C172.667 336.833 169.333 336.833 166 331.5C164.773 326.938 165.607 322.938 168.5 319.5Z" fill="#F8F7F7"/>
<path fill-rule="evenodd" clip-rule="evenodd" d="M210.5 324.5C209.833 328.833 209.167 333.167 208.5 337.5C208.334 332.489 208.501 327.489 209 322.5C209.717 323.044 210.217 323.711 210.5 324.5Z" fill="#B7B6B6"/>
<path fill-rule="evenodd" clip-rule="evenodd" d="M122.5 317.5C123.473 319.948 123.806 322.615 123.5 325.5C126.833 325.5 130.167 325.5 133.5 325.5C130.038 326.482 126.371 326.815 122.5 326.5C122.5 323.5 122.5 320.5 122.5 317.5Z" fill="#787776"/>
<path fill-rule="evenodd" clip-rule="evenodd" d="M133.5 328.5C130.167 328.5 126.833 328.5 123.5 328.5C123.81 331.713 123.477 334.713 122.5 337.5C122.5 334.167 122.5 330.833 122.5 327.5C126.371 327.185 130.038 327.518 133.5 328.5Z" fill="#787876"/>
<path fill-rule="evenodd" clip-rule="evenodd" d="M194.5 372.5C193.833 372.5 193.167 372.5 192.5 372.5C191.04 370.537 189.373 368.704 187.5 367C190.464 367.772 192.798 369.605 194.5 372.5Z" fill="#3B3B3B"/>
<path fill-rule="evenodd" clip-rule="evenodd" d="M215.5 372.5C216.799 370.901 218.465 370.401 220.5 371C218.975 372.009 217.308 372.509 215.5 372.5Z" fill="#686868"/>
<path fill-rule="evenodd" clip-rule="evenodd" d="M227.5 370.5C229.527 370.338 231.527 370.505 233.5 371C230.692 371.598 228.192 372.765 226 374.5C225.7 372.934 226.2 371.601 227.5 370.5Z" fill="#4F4F4F"/>
<path fill-rule="evenodd" clip-rule="evenodd" d="M240.5 372.5C240.415 371.005 241.081 370.005 242.5 369.5C243.639 371.396 242.973 372.396 240.5 372.5Z" fill="#474747"/>
<path fill-rule="evenodd" clip-rule="evenodd" d="M192.5 372.5C193.167 372.5 193.833 372.5 194.5 372.5C195.376 372.369 196.043 372.702 196.5 373.5C195.282 373.109 194.448 373.776 194 375.5C192.961 374.756 192.461 373.756 192.5 372.5Z" fill="#919191"/>
<path fill-rule="evenodd" clip-rule="evenodd" d="M206.5 374.5C205.244 374.539 204.244 374.039 203.5 373C204.998 372.415 205.998 372.915 206.5 374.5Z" fill="#6B6B6B"/>
<path fill-rule="evenodd" clip-rule="evenodd" d="M175.5 374.5C173.284 374.725 171.617 373.892 170.5 372C172.668 371.751 174.335 372.584 175.5 374.5Z" fill="#323232"/>
<path fill-rule="evenodd" clip-rule="evenodd" d="M215.5 372.5C214.4 373.605 213.733 374.938 213.5 376.5C213.5 377.5 213.5 378.5 213.5 379.5C214.5 379.5 215.5 379.5 216.5 379.5C216.719 380.675 216.386 381.675 215.5 382.5C214.583 381.873 213.583 381.539 212.5 381.5C210.833 381.5 209.167 381.5 207.5 381.5C206.167 381.833 204.833 382.167 203.5 382.5C203.167 381.833 202.833 381.167 202.5 380.5C202.351 379.448 202.517 378.448 203 377.5C204.729 377.026 205.895 376.026 206.5 374.5C207.5 374.5 208.5 374.5 209.5 374.5C209.596 370.689 210.262 370.689 211.5 374.5C212.622 373.37 213.956 372.703 215.5 372.5Z" fill="#1D1D1D"/>
<path fill-rule="evenodd" clip-rule="evenodd" d="M175.5 374.5C177.884 376.885 180.55 378.885 183.5 380.5C182.761 380.369 182.094 380.536 181.5 381C182.381 381.708 183.047 382.542 183.5 383.5C181.983 383.489 180.816 382.823 180 381.5C178.25 379.266 176.75 376.932 175.5 374.5Z" fill="#4B4B4B"/>
<path fill-rule="evenodd" clip-rule="evenodd" d="M240.5 372.5C239.416 375.004 238.083 377.337 236.5 379.5C235.833 379.5 235.5 379.167 235.5 378.5C236.47 375.941 238.137 373.941 240.5 372.5Z" fill="#464646"/>
<path fill-rule="evenodd" clip-rule="evenodd" d="M235.5 378.5C235.5 379.167 235.833 379.5 236.5 379.5C236.34 381.153 235.674 382.486 234.5 383.5C233.5 383.5 232.5 383.5 231.5 383.5C232.08 381.251 233.413 379.585 235.5 378.5Z" fill="#A4A4A4"/>
<path fill-rule="evenodd" clip-rule="evenodd" d="M213.5 376.5C215.722 376.178 217.556 376.845 219 378.5C220.241 376.579 221.741 376.246 223.5 377.5C221.812 380.223 220.145 382.889 218.5 385.5C217.883 385.611 217.383 385.944 217 386.5C214.799 385.004 212.299 384.004 209.5 383.5C210.602 382.824 211.602 382.158 212.5 381.5C213.583 381.539 214.583 381.873 215.5 382.5C216.386 381.675 216.719 380.675 216.5 379.5C215.5 379.5 214.5 379.5 213.5 379.5C213.5 378.5 213.5 377.5 213.5 376.5Z" fill="#787878"/>
<path fill-rule="evenodd" clip-rule="evenodd" d="M183.5 380.5C185.461 381.46 187.127 382.793 188.5 384.5C187.209 384.263 186.209 384.596 185.5 385.5C184.5 385.167 183.833 384.5 183.5 383.5C183.047 382.542 182.381 381.708 181.5 381C182.094 380.536 182.761 380.369 183.5 380.5Z" fill="#B6B6B6"/>
<path fill-rule="evenodd" clip-rule="evenodd" d="M202.5 380.5C202.833 381.167 203.167 381.833 203.5 382.5C201.806 383.686 200.139 383.519 198.5 382C197.5 380.333 196.5 378.667 195.5 377C196.5 376.333 197.5 376.333 198.5 377C198.259 378.562 198.759 380.062 200 381.5C200.342 379.381 201.175 379.047 202.5 380.5Z" fill="#656565"/>
<path fill-rule="evenodd" clip-rule="evenodd" d="M207.5 381.5C209.167 381.5 210.833 381.5 212.5 381.5C211.602 382.158 210.602 382.824 209.5 383.5C212.299 384.004 214.799 385.004 217 386.5C217.383 385.944 217.883 385.611 218.5 385.5C217.198 387.028 215.531 388.028 213.5 388.5C211.965 387.646 210.632 387.646 209.5 388.5C206.886 388.723 205.219 387.556 204.5 385C207.758 385.905 208.758 384.738 207.5 381.5Z" fill="#F0F0F0"/>
<path fill-rule="evenodd" clip-rule="evenodd" d="M188.5 384.5C190.673 385.166 191.007 386.333 189.5 388C190.101 389.605 191.101 390.938 192.5 392C192.167 392.167 191.833 392.333 191.5 392.5C189.255 390.322 187.255 387.988 185.5 385.5C186.209 384.596 187.209 384.263 188.5 384.5Z" fill="#2F2F2F"/>
<path fill-rule="evenodd" clip-rule="evenodd" d="M234.5 383.5C232.633 384.76 231.3 386.427 230.5 388.5C228.958 387.699 227.292 387.366 225.5 387.5C226.853 385.262 228.853 383.929 231.5 383.5C232.5 383.5 233.5 383.5 234.5 383.5Z" fill="#232323"/>
<path fill-rule="evenodd" clip-rule="evenodd" d="M207.5 381.5C208.758 384.738 207.758 385.905 204.5 385C205.219 387.556 206.886 388.723 209.5 388.5C208.329 389.345 206.995 390.011 205.5 390.5C205.244 388.224 203.91 387.057 201.5 387C202.756 386.583 203.423 385.75 203.5 384.5C203.5 383.833 203.5 383.167 203.5 382.5C204.833 382.167 206.167 381.833 207.5 381.5Z" fill="#989898"/>
<path fill-rule="evenodd" clip-rule="evenodd" d="M218.5 385.5C220.173 386.343 221.34 387.676 222 389.5C222.671 388.748 223.504 388.414 224.5 388.5C223.833 389.833 222.833 390.833 221.5 391.5C218.459 390.364 215.792 389.364 213.5 388.5C215.531 388.028 217.198 387.028 218.5 385.5Z" fill="#424242"/>
<path fill-rule="evenodd" clip-rule="evenodd" d="M224.5 388.5C224.5 387.833 224.833 387.5 225.5 387.5C227.292 387.366 228.958 387.699 230.5 388.5C229.5 390.167 228.167 391.5 226.5 392.5C226.158 391.662 225.492 391.328 224.5 391.5C225.625 390.348 225.625 389.348 224.5 388.5Z" fill="#828282"/>
<path fill-rule="evenodd" clip-rule="evenodd" d="M213.5 388.5C215.792 389.364 218.459 390.364 221.5 391.5C222.5 392.833 223.5 392.833 224.5 391.5C225.492 391.328 226.158 391.662 226.5 392.5C225.833 392.833 225.167 393.167 224.5 393.5C222.515 394.047 220.849 395.047 219.5 396.5C218.749 395.427 217.749 395.26 216.5 396C217.167 396.333 217.833 396.667 218.5 397C214.457 397.47 213.79 398.97 216.5 401.5C215.062 403.345 215.396 404.511 217.5 405C214.046 405.628 213.713 406.795 216.5 408.5C214.8 408.374 213.3 407.707 212 406.5C211.055 406.905 210.388 407.572 210 408.5C209.667 408.167 209.333 407.833 209 407.5C207.905 408.693 207.072 410.027 206.5 411.5C204.883 410.411 204.05 408.744 204 406.5C201.289 409.165 200.289 408.498 201 404.5C202.049 405.517 203.216 405.684 204.5 405C203.584 404.722 202.918 404.222 202.5 403.5C204.915 401.409 205.415 399.076 204 396.5C203.333 397.833 202.667 397.833 202 396.5C201.085 397.328 200.419 398.328 200 399.5C199.221 397.193 199.721 395.193 201.5 393.5C201.154 392.304 200.654 392.304 200 393.5C199.536 392.906 199.369 392.239 199.5 391.5C200.847 390.972 202.181 390.805 203.5 391C203.167 391.333 202.833 391.667 202.5 392C203.667 392.5 204.5 393.333 205 394.5C206.334 393.122 206.501 391.789 205.5 390.5C206.995 390.011 208.329 389.345 209.5 388.5C210.632 387.646 211.965 387.646 213.5 388.5Z" fill="#151515"/>
<path fill-rule="evenodd" clip-rule="evenodd" d="M224.5 388.5C225.625 389.348 225.625 390.348 224.5 391.5C223.5 392.833 222.5 392.833 221.5 391.5C222.833 390.833 223.833 389.833 224.5 388.5Z" fill="#E3E3E3"/>
<path fill-rule="evenodd" clip-rule="evenodd" d="M203.5 384.5C203.423 385.75 202.756 386.583 201.5 387C203.91 387.057 205.244 388.224 205.5 390.5C206.501 391.789 206.334 393.122 205 394.5C204.5 393.333 203.667 392.5 202.5 392C202.833 391.667 203.167 391.333 203.5 391C202.181 390.805 200.847 390.972 199.5 391.5C199.167 391.5 198.833 391.5 198.5 391.5C199.566 389.299 200.233 386.965 200.5 384.5C201.5 384.5 202.5 384.5 203.5 384.5Z" fill="#3D3D3D"/>
<path fill-rule="evenodd" clip-rule="evenodd" d="M198.5 391.5C198.5 393.5 197.5 394.5 195.5 394.5C195.5 394.167 195.5 393.833 195.5 393.5C195.938 393.565 196.272 393.399 196.5 393C193.349 391.839 191.849 389.672 192 386.5C193.777 388.79 195.944 390.457 198.5 391.5Z" fill="#252525"/>
<path fill-rule="evenodd" clip-rule="evenodd" d="M159.5 394.5C167.558 393.32 175.724 393.654 184 395.5C187.941 395.205 191.775 394.538 195.5 393.5C195.5 393.833 195.5 394.167 195.5 394.5C195.25 395.922 194.417 396.922 193 397.5C189.399 396.18 185.899 396.18 182.5 397.5C179.927 398.555 177.261 398.722 174.5 398C175.5 397.667 176.5 397.333 177.5 397C176.051 395.883 174.384 395.216 172.5 395C168.179 394.501 163.846 394.334 159.5 394.5Z" fill="#7F7F7F"/>
<path fill-rule="evenodd" clip-rule="evenodd" d="M238.5 395.5C243.167 395.5 247.833 395.5 252.5 395.5C252.5 395.833 252.5 396.167 252.5 396.5C249.833 396.5 247.167 396.5 244.5 396.5C242.265 396.205 240.265 396.539 238.5 397.5C237.833 397.5 237.167 397.5 236.5 397.5C235.391 396.71 234.058 396.21 232.5 396C234.473 395.505 236.473 395.338 238.5 395.5Z" fill="#1E1E1E"/>
<path fill-rule="evenodd" clip-rule="evenodd" d="M252.5 395.5C256.721 395.843 260.554 397.177 264 399.5C264.866 401.896 264.366 402.563 262.5 401.5C260.517 401.815 259.184 402.815 258.5 404.5C257.326 403.486 256.66 402.153 256.5 400.5C252.432 400.478 248.765 400.812 245.5 401.5C243.048 400.935 240.715 400.268 238.5 399.5C242.884 399.826 247.217 399.492 251.5 398.5C251.863 397.817 252.196 397.15 252.5 396.5C252.5 396.167 252.5 395.833 252.5 395.5Z" fill="#7D7D7D"/>
<path fill-rule="evenodd" clip-rule="evenodd" d="M238.5 397.5C240.265 396.539 242.265 396.205 244.5 396.5C245.952 397.302 247.618 397.802 249.5 398C245.745 398.755 242.078 398.589 238.5 397.5Z" fill="#989898"/>
<path fill-rule="evenodd" clip-rule="evenodd" d="M159.5 394.5C163.846 394.334 168.179 394.501 172.5 395C174.384 395.216 176.051 395.883 177.5 397C176.5 397.333 175.5 397.667 174.5 398C177.261 398.722 179.927 398.555 182.5 397.5C183.791 397.263 184.791 397.596 185.5 398.5C180.881 399.314 176.214 399.647 171.5 399.5C167.317 398.415 162.984 397.415 158.5 396.5C158.863 395.817 159.196 395.15 159.5 394.5Z" fill="#F0F0F0"/>
<path fill-rule="evenodd" clip-rule="evenodd" d="M159.5 394.5C159.196 395.15 158.863 395.817 158.5 396.5C162.984 397.415 167.317 398.415 171.5 399.5C167.278 399.078 163.278 399.745 159.5 401.5C160.428 402.768 160.595 404.101 160 405.5C159.426 403.508 158.259 402.008 156.5 401C158.087 400.138 159.754 399.471 161.5 399C160.207 398.51 158.873 398.343 157.5 398.5C157.157 396.517 157.824 395.183 159.5 394.5Z" fill="#A3A3A3"/>
<path fill-rule="evenodd" clip-rule="evenodd" d="M244.5 396.5C247.167 396.5 249.833 396.5 252.5 396.5C252.196 397.15 251.863 397.817 251.5 398.5C247.217 399.492 242.884 399.826 238.5 399.5C237.833 398.833 237.167 398.167 236.5 397.5C237.167 397.5 237.833 397.5 238.5 397.5C242.078 398.589 245.745 398.755 249.5 398C247.618 397.802 245.952 397.302 244.5 396.5Z" fill="#EDEDED"/>
<path fill-rule="evenodd" clip-rule="evenodd" d="M256.5 400.5C255.391 399.71 254.058 399.21 252.5 399C255.227 398.182 257.894 398.348 260.5 399.5C259.311 400.429 257.978 400.762 256.5 400.5Z" fill="#FEFFFE"/>
<path fill-rule="evenodd" clip-rule="evenodd" d="M189.5 406.5C183.91 403.944 178.744 404.944 174 409.5C173.552 407.591 174.385 406.424 176.5 406C175.007 404.632 173.507 404.465 172 405.5C168.44 404.22 165.607 402.72 163.5 401C166.099 400.231 168.599 400.398 171 401.5C171.464 400.906 171.631 400.239 171.5 399.5C176.214 399.647 180.881 399.314 185.5 398.5C186.15 398.196 186.817 397.863 187.5 397.5C188.696 397.846 188.696 398.346 187.5 399C191.5 399.667 191.5 400.333 187.5 401C186.549 401.718 186.383 402.551 187 403.5C189.746 402.35 192.579 401.85 195.5 402C193.913 402.862 192.246 403.529 190.5 404C191.566 405.159 191.233 405.992 189.5 406.5Z" fill="#858585"/>
<path fill-rule="evenodd" clip-rule="evenodd" d="M219.5 396.5C220.833 398.167 220.833 399.833 219.5 401.5C218.957 401.56 218.624 401.893 218.5 402.5C219.844 404.529 221.177 406.529 222.5 408.5C220.61 408.297 219.11 408.963 218 410.5C217.283 409.956 216.783 409.289 216.5 408.5C213.713 406.795 214.046 405.628 217.5 405C215.396 404.511 215.062 403.345 216.5 401.5C213.79 398.97 214.457 397.47 218.5 397C217.833 396.667 217.167 396.333 216.5 396C217.749 395.26 218.749 395.427 219.5 396.5Z" fill="#393939"/>
<path fill-rule="evenodd" clip-rule="evenodd" d="M198.5 391.5C198.833 391.5 199.167 391.5 199.5 391.5C199.369 392.239 199.536 392.906 200 393.5C200.654 392.304 201.154 392.304 201.5 393.5C199.721 395.193 199.221 397.193 200 399.5C200.419 398.328 201.085 397.328 202 396.5C202.667 397.833 203.333 397.833 204 396.5C205.415 399.076 204.915 401.409 202.5 403.5C201.883 403.389 201.383 403.056 201 402.5C199.628 403.91 198.795 405.577 198.5 407.5C195.295 411.374 191.295 414.04 186.5 415.5C184.612 414.725 182.612 414.725 180.5 415.5C178.143 415.663 175.81 415.497 173.5 415C173.043 414.586 172.709 414.086 172.5 413.5C175.494 412.338 178.16 410.671 180.5 408.5C183.824 409.508 186.824 408.841 189.5 406.5C191.233 405.992 191.566 405.159 190.5 404C192.246 403.529 193.913 402.862 195.5 402C192.579 401.85 189.746 402.35 187 403.5C186.383 402.551 186.549 401.718 187.5 401C191.5 400.333 191.5 399.667 187.5 399C188.696 398.346 188.696 397.846 187.5 397.5C186.817 397.863 186.15 398.196 185.5 398.5C184.791 397.596 183.791 397.263 182.5 397.5C185.899 396.18 189.399 396.18 193 397.5C194.417 396.922 195.25 395.922 195.5 394.5C197.5 394.5 198.5 393.5 198.5 391.5Z" fill="#BABABA"/>
<path fill-rule="evenodd" clip-rule="evenodd" d="M219.5 401.5C222.028 405.431 225.694 407.264 230.5 407C233.921 410.209 232.921 412.042 227.5 412.5C226.738 410.738 225.404 409.738 223.5 409.5C223.5 408.833 223.167 408.5 222.5 408.5C221.177 406.529 219.844 404.529 218.5 402.5C218.624 401.893 218.957 401.56 219.5 401.5Z" fill="#EDEDED"/>
<path fill-rule="evenodd" clip-rule="evenodd" d="M238.5 399.5C240.715 400.268 243.048 400.935 245.5 401.5C248.765 400.812 252.432 400.478 256.5 400.5C256.66 402.153 257.326 403.486 258.5 404.5C260.137 403.782 261.803 403.616 263.5 404C259.949 406.389 256.283 408.555 252.5 410.5C252.5 409.5 252.5 408.5 252.5 407.5C248.783 407.289 245.283 406.289 242 404.5C240.774 404.645 239.607 404.978 238.5 405.5C237.304 405.154 237.304 404.654 238.5 404C235.5 403 232.5 402 229.5 401C231.568 400.313 233.568 400.48 235.5 401.5C236.696 401.154 236.696 400.654 235.5 400C236.448 399.517 237.448 399.351 238.5 399.5Z" fill="#D7D7D7"/>
<path fill-rule="evenodd" clip-rule="evenodd" d="M245.5 401.5C248.261 403.212 251.261 404.378 254.5 405C253.234 405.309 252.067 405.809 251 406.5C247.595 404.147 243.762 402.98 239.5 403C241.708 402.809 243.708 402.309 245.5 401.5Z" fill="#7D7D7D"/>
<path fill-rule="evenodd" clip-rule="evenodd" d="M224.5 393.5C229.167 394.167 233.833 394.833 238.5 395.5C236.473 395.338 234.473 395.505 232.5 396C234.058 396.21 235.391 396.71 236.5 397.5C237.167 398.167 237.833 398.833 238.5 399.5C237.448 399.351 236.448 399.517 235.5 400C236.696 400.654 236.696 401.154 235.5 401.5C233.568 400.48 231.568 400.313 229.5 401C232.5 402 235.5 403 238.5 404C237.304 404.654 237.304 405.154 238.5 405.5C239.607 404.978 240.774 404.645 242 404.5C245.283 406.289 248.783 407.289 252.5 407.5C252.5 408.5 252.5 409.5 252.5 410.5C251.027 409.929 249.36 409.929 247.5 410.5C247.143 414.395 245.143 415.395 241.5 413.5C242.274 412.289 243.107 412.289 244 413.5C243.155 410.269 241.488 409.936 239 412.5C238.612 411.572 237.945 410.905 237 410.5C234.521 411.098 232.354 412.265 230.5 414C231.056 414.383 231.389 414.883 231.5 415.5C229.596 415.262 228.262 414.262 227.5 412.5C232.921 412.042 233.921 410.209 230.5 407C225.694 407.264 222.028 405.431 219.5 401.5C220.833 399.833 220.833 398.167 219.5 396.5C220.849 395.047 222.515 394.047 224.5 393.5Z" fill="#8F8F8F"/>
<path fill-rule="evenodd" clip-rule="evenodd" d="M229.5 404.5C229.56 403.957 229.893 403.624 230.5 403.5C235.052 404.976 238.719 406.809 241.5 409C238.697 409.755 236.03 409.422 233.5 408C234.167 407.667 234.833 407.333 235.5 407C233.359 406.427 231.359 405.594 229.5 404.5Z" fill="#EDEDED"/>
<path fill-rule="evenodd" clip-rule="evenodd" d="M229.5 404.5C225.676 406.194 223.843 404.861 224 400.5C225.992 401.665 227.825 402.998 229.5 404.5Z" fill="#F9F9F9"/>
<path fill-rule="evenodd" clip-rule="evenodd" d="M221.5 395.5C225.414 395.98 229.081 397.146 232.5 399C227.969 400.046 224.302 398.879 221.5 395.5Z" fill="#F9F9F9"/>
<path fill-rule="evenodd" clip-rule="evenodd" d="M216.5 408.5C216.783 409.289 217.283 409.956 218 410.5C219.11 408.963 220.61 408.297 222.5 408.5C223.167 408.5 223.5 408.833 223.5 409.5C221.511 411.135 219.511 412.802 217.5 414.5C217.306 412.958 216.139 411.625 214 410.5C212.127 409.911 210.46 410.578 209 412.5C208.329 411.748 207.496 411.414 206.5 411.5C207.072 410.027 207.905 408.693 209 407.5C209.333 407.833 209.667 408.167 210 408.5C210.388 407.572 211.055 406.905 212 406.5C213.3 407.707 214.8 408.374 216.5 408.5Z" fill="#808080"/>
<path fill-rule="evenodd" clip-rule="evenodd" d="M202.5 403.5C202.918 404.222 203.584 404.722 204.5 405C203.216 405.684 202.049 405.517 201 404.5C200.289 408.498 201.289 409.165 204 406.5C204.05 408.744 204.883 410.411 206.5 411.5C207.681 413.067 209.347 413.901 211.5 414C210.667 414.167 209.833 414.333 209 414.5C205.457 413.321 201.957 412.321 198.5 411.5C198.5 410.167 198.5 408.833 198.5 407.5C198.795 405.577 199.628 403.91 201 402.5C201.383 403.056 201.883 403.389 202.5 403.5Z" fill="#868686"/>
<path fill-rule="evenodd" clip-rule="evenodd" d="M198.5 407.5C198.5 408.833 198.5 410.167 198.5 411.5C197.222 411.782 196.222 412.449 195.5 413.5C193.5 413.5 192.5 414.5 192.5 416.5C191.395 417.6 190.062 418.267 188.5 418.5C188.611 417.883 188.944 417.383 189.5 417C188.263 416.768 187.263 416.268 186.5 415.5C191.295 414.04 195.295 411.374 198.5 407.5Z" fill="#242424"/>
<path fill-rule="evenodd" clip-rule="evenodd" d="M223.5 409.5C224.924 412.836 223.924 415.336 220.5 417C222.163 417.265 223.663 416.765 225 415.5C225.232 416.737 225.732 417.737 226.5 418.5C226.5 418.833 226.5 419.167 226.5 419.5C225.127 419.343 223.793 419.51 222.5 420C221.922 421.417 220.922 422.25 219.5 422.5C217.852 423.777 216.018 424.777 214 425.5C213.722 424.584 213.222 423.918 212.5 423.5C209.443 422.84 206.443 423.173 203.5 424.5C202.778 424.082 202.278 423.416 202 422.5C200.913 424.932 200.413 424.598 200.5 421.5C198.881 420.928 197.215 420.595 195.5 420.5C194.55 418.469 194.55 416.135 195.5 413.5C196.222 412.449 197.222 411.782 198.5 411.5C201.957 412.321 205.457 413.321 209 414.5C209.833 414.333 210.667 414.167 211.5 414C209.347 413.901 207.681 413.067 206.5 411.5C207.496 411.414 208.329 411.748 209 412.5C210.46 410.578 212.127 409.911 214 410.5C216.139 411.625 217.306 412.958 217.5 414.5C219.511 412.802 221.511 411.135 223.5 409.5Z" fill="#E8E8E8"/>
<path fill-rule="evenodd" clip-rule="evenodd" d="M227.5 412.5C228.262 414.262 229.596 415.262 231.5 415.5C232.66 417.203 231.993 417.869 229.5 417.5C228.375 415.871 227.041 414.371 225.5 413C226.094 412.536 226.761 412.369 227.5 412.5Z" fill="#E9E9E9"/>
<path fill-rule="evenodd" clip-rule="evenodd" d="M186.5 415.5C187.263 416.268 188.263 416.768 189.5 417C188.944 417.383 188.611 417.883 188.5 418.5C187.504 418.414 186.671 418.748 186 419.5C185.536 418.906 185.369 418.239 185.5 417.5C183.833 416.833 182.167 416.167 180.5 415.5C182.612 414.725 184.612 414.725 186.5 415.5Z" fill="#8E8E8E"/>
<path fill-rule="evenodd" clip-rule="evenodd" d="M223.5 409.5C225.404 409.738 226.738 410.738 227.5 412.5C226.761 412.369 226.094 412.536 225.5 413C227.041 414.371 228.375 415.871 229.5 417.5C228.391 417.557 227.391 417.89 226.5 418.5C225.732 417.737 225.232 416.737 225 415.5C223.663 416.765 222.163 417.265 220.5 417C223.924 415.336 224.924 412.836 223.5 409.5Z" fill="#545454"/>
<path fill-rule="evenodd" clip-rule="evenodd" d="M185.5 417.5C185.369 418.239 185.536 418.906 186 419.5C186.671 418.748 187.504 418.414 188.5 418.5C187.089 420.539 185.089 421.539 182.5 421.5C183.026 419.77 184.026 418.436 185.5 417.5Z" fill="#232323"/>
<path fill-rule="evenodd" clip-rule="evenodd" d="M195.5 413.5C194.55 416.135 194.55 418.469 195.5 420.5C197.215 420.595 198.881 420.928 200.5 421.5C199.71 422.609 199.21 423.942 199 425.5C198.716 423.114 197.716 422.448 196 423.5C195.53 424.577 195.697 425.577 196.5 426.5C195.25 426.423 194.417 425.756 194 424.5C193.817 421.635 193.317 418.969 192.5 416.5C192.5 414.5 193.5 413.5 195.5 413.5Z" fill="#575757"/>
<path fill-rule="evenodd" clip-rule="evenodd" d="M200.5 421.5C200.413 424.598 200.913 424.932 202 422.5C202.278 423.416 202.778 424.082 203.5 424.5C204.222 424.918 204.722 425.584 205 426.5C206.549 423.997 208.216 423.997 210 426.5C211.041 425.529 211.874 424.529 212.5 423.5C213.222 423.918 213.722 424.584 214 425.5C216.018 424.777 217.852 423.777 219.5 422.5C219.783 423.289 220.283 423.956 221 424.5C221.779 423.272 222.779 422.272 224 421.5C225.03 421.836 225.53 422.503 225.5 423.5C222.067 430.455 216.9 432.788 210 430.5C209.751 431.624 209.251 432.624 208.5 433.5C205.416 433.139 202.916 431.806 201 429.5C198.448 430.487 196.948 429.487 196.5 426.5C195.697 425.577 195.53 424.577 196 423.5C197.716 422.448 198.716 423.114 199 425.5C199.21 423.942 199.71 422.609 200.5 421.5Z" fill="#131313"/>
<path fill-rule="evenodd" clip-rule="evenodd" d="M182.5 421.5C183.83 423.881 183.664 426.214 182 428.5C182.358 425.966 182.525 423.633 182.5 421.5Z" fill="#4B4B4B"/>
<path fill-rule="evenodd" clip-rule="evenodd" d="M226.5 419.5C226.768 421.099 226.434 422.432 225.5 423.5C225.53 422.503 225.03 421.836 224 421.5C222.779 422.272 221.779 423.272 221 424.5C220.283 423.956 219.783 423.289 219.5 422.5C220.922 422.25 221.922 421.417 222.5 420C223.793 419.51 225.127 419.343 226.5 419.5Z" fill="#8D8D8D"/>
<path fill-rule="evenodd" clip-rule="evenodd" d="M231.5 415.5C237.341 419.468 239.841 425.135 239 432.5C239.833 433.333 240.667 434.167 241.5 435C239.613 435.163 238.113 434.329 237 432.5C236.734 428.019 235.901 423.686 234.5 419.5C232.447 419.598 230.78 418.931 229.5 417.5C231.993 417.869 232.66 417.203 231.5 415.5Z" fill="#6F6F6F"/>
<path fill-rule="evenodd" clip-rule="evenodd" d="M212.5 423.5C211.874 424.529 211.041 425.529 210 426.5C208.216 423.997 206.549 423.997 205 426.5C204.722 425.584 204.222 424.918 203.5 424.5C206.443 423.173 209.443 422.84 212.5 423.5Z" fill="#6F6F6F"/>
<path fill-rule="evenodd" clip-rule="evenodd" d="M181.5 429.5C182.147 430.274 182.48 431.274 182.5 432.5C182.923 435.182 181.923 436.348 179.5 436C181.229 434.211 181.896 432.044 181.5 429.5Z" fill="#363636"/>
</g>
<defs>
<clipPath id="clip0_1_189">
<rect width="422" height="493" fill="white"/>
</clipPath>
</defs>
</svg>
