<svg width="206" height="471" viewBox="0 0 206 471" fill="none" xmlns="http://www.w3.org/2000/svg">
<path fill-rule="evenodd" clip-rule="evenodd" d="M99.5 107.5C98.209 108.542 98.209 109.708 99.5 111C98.837 112.518 97.837 113.685 96.5 114.5C95.501 106.189 95.335 97.856 96 89.5C104.852 61.9098 112.185 33.9098 118 5.50001C118.667 4.16671 119.333 4.16671 120 5.50001C121.937 16.4899 121.937 27.4899 120 38.5C113.265 61.5387 106.431 84.5387 99.5 107.5Z" fill="#0B0B0B"/>
<path fill-rule="evenodd" clip-rule="evenodd" d="M46.5 41.5C47.585 43.5869 49.251 44.9202 51.5 45.5C55.479 48.1455 58.812 51.4788 61.5 55.5C78.338 79.0033 87.671 105.337 89.5 134.5C88.833 133.833 88.167 133.167 87.5 132.5C82.759 118.773 78.926 104.773 76 90.5C71.854 80.2004 66.187 70.8671 59 62.5C51.853 53.7184 44.353 45.2184 36.5 37C39.873 38.154 43.207 39.654 46.5 41.5Z" fill="#F7F3F0"/>
<path fill-rule="evenodd" clip-rule="evenodd" d="M183.5 40.5C183.918 41.2216 184.584 41.7216 185.5 42C184.906 42.4643 184.239 42.631 183.5 42.5C179.781 43.4704 176.114 44.3038 172.5 45C176.075 43.1993 179.742 41.6993 183.5 40.5Z" fill="#5D5D5D"/>
<path fill-rule="evenodd" clip-rule="evenodd" d="M46.5 41.5C48.749 42.0798 50.415 43.4131 51.5 45.5C49.251 44.9202 47.585 43.5869 46.5 41.5Z" fill="#515151"/>
<path fill-rule="evenodd" clip-rule="evenodd" d="M161.5 50.5C164.077 48.2105 167.077 47.0438 170.5 47C167.691 48.7411 164.691 49.9078 161.5 50.5Z" fill="#808080"/>
<path fill-rule="evenodd" clip-rule="evenodd" d="M103.5 109.5C103.167 109.5 102.833 109.5 102.5 109.5C110.857 97.304 120.857 86.4703 132.5 77C149.22 64.9819 166.22 53.4819 183.5 42.5C184.239 42.631 184.906 42.4643 185.5 42C184.584 41.7216 183.918 41.2216 183.5 40.5C185.54 39.4808 187.54 39.4808 189.5 40.5C171.204 53.3208 152.871 66.1542 134.5 79C122.997 88.0029 112.664 98.17 103.5 109.5Z" fill="#161616"/>
<path fill-rule="evenodd" clip-rule="evenodd" d="M161.5 50.5C159.669 52.7487 157.336 53.9154 154.5 54C156.577 52.295 158.91 51.1283 161.5 50.5Z" fill="#656565"/>
<path fill-rule="evenodd" clip-rule="evenodd" d="M149.5 57.5C150.002 55.9153 151.002 55.4153 152.5 56C151.756 57.0386 150.756 57.5386 149.5 57.5Z" fill="#434343"/>
<path fill-rule="evenodd" clip-rule="evenodd" d="M46.5 41.5C43.207 39.654 39.873 38.154 36.5 37C44.353 45.2184 51.853 53.7184 59 62.5C66.187 70.8671 71.854 80.2004 76 90.5C78.926 104.773 82.759 118.773 87.5 132.5C85.442 128.71 83.609 124.71 82 120.5C78.417 107.258 74.084 94.258 69 81.5C58.809 66.304 47.476 51.9706 35 38.5C33.991 36.9751 33.491 35.3084 33.5 33.5C38.634 34.8985 42.967 37.5652 46.5 41.5Z" fill="#1A1A1A"/>
<path fill-rule="evenodd" clip-rule="evenodd" d="M61.5 55.5C76.816 72.478 85.982 92.478 89 115.5C90.188 121.778 90.688 128.112 90.5 134.5C90.167 134.5 89.833 134.5 89.5 134.5C87.671 105.337 78.338 79.0033 61.5 55.5Z" fill="#1D1D1D"/>
<path fill-rule="evenodd" clip-rule="evenodd" d="M149.5 57.5C129.813 69.5209 114.146 85.5209 102.5 105.5C102.167 105.5 101.833 105.5 101.5 105.5C111.833 83.8333 127.833 67.8333 149.5 57.5Z" fill="#1B1B1B"/>
<path fill-rule="evenodd" clip-rule="evenodd" d="M89.5 177.5C89.5 176.833 89.5 176.167 89.5 175.5C100.372 146.468 119.038 123.968 145.5 108C157.644 100.89 170.644 97.39 184.5 97.5C166.448 105.025 149.781 114.858 134.5 127C118.192 142.871 103.192 159.704 89.5 177.5Z" fill="#0B0B0B"/>
<path fill-rule="evenodd" clip-rule="evenodd" d="M101.5 105.5C101.833 105.5 102.167 105.5 102.5 105.5C101.847 106.807 101.18 108.14 100.5 109.5C100.97 110.463 101.637 110.463 102.5 109.5C102.833 109.5 103.167 109.5 103.5 109.5C101.539 111.963 99.372 114.297 97 116.5C96.536 115.906 96.369 115.239 96.5 114.5C97.837 113.685 98.837 112.518 99.5 111C98.209 109.708 98.209 108.542 99.5 107.5C100.167 106.833 100.833 106.167 101.5 105.5Z" fill="#606060"/>
<path fill-rule="evenodd" clip-rule="evenodd" d="M87.5 132.5C88.167 133.167 88.833 133.833 89.5 134.5C89.833 134.5 90.167 134.5 90.5 134.5C90.833 134.5 91.167 134.5 91.5 134.5C91.068 135.71 90.401 136.71 89.5 137.5C88.069 136.22 87.402 134.553 87.5 132.5Z" fill="#7C7C7C"/>
<path fill-rule="evenodd" clip-rule="evenodd" d="M89.5 175.5C89.5 176.167 89.5 176.833 89.5 177.5C87.984 180.571 87.317 183.904 87.5 187.5C88 194.5 88.5 201.5 89 208.5C92.908 185.304 104.741 167.637 124.5 155.5C109.842 167.134 99.342 181.801 93 199.5C91.251 206.076 90.084 212.743 89.5 219.5C89.328 220.492 89.662 221.158 90.5 221.5C94.014 241.544 97.514 261.544 101 281.5C99.006 276.177 97.006 270.843 95 265.5C90.333 259.5 85.667 253.5 81 247.5C69.892 228.929 58.058 210.929 45.5 193.5C47.129 194.625 48.629 195.959 50 197.5C65.406 217.976 80.072 238.976 94 260.5C86.616 230.033 83.616 199.033 85 167.5C85.989 157.407 87.489 147.407 89.5 137.5C90.401 136.71 91.068 135.71 91.5 134.5C92.016 131.101 92.85 127.768 94 124.5C94.167 125.167 94.333 125.833 94.5 126.5C89.663 143.513 87.497 160.846 88 178.5C88.232 177.263 88.732 176.263 89.5 175.5Z" fill="#181818"/>
<path fill-rule="evenodd" clip-rule="evenodd" d="M152.5 142.5C152.5 142.833 152.5 143.167 152.5 143.5C148.391 145.368 144.058 146.534 139.5 147C143.76 145.191 148.094 143.691 152.5 142.5Z" fill="#5E5E5E"/>
<path fill-rule="evenodd" clip-rule="evenodd" d="M94.5 215.5C94.167 215.5 93.833 215.5 93.5 215.5C103.496 194.355 116.829 175.522 133.5 159C140.298 153.544 147.631 148.877 155.5 145C155.833 144.667 156.167 144.333 156.5 144C155.207 143.51 153.873 143.343 152.5 143.5C152.5 143.167 152.5 142.833 152.5 142.5C155.502 141.357 158.502 141.357 161.5 142.5C155.266 147.554 148.599 152.054 141.5 156C122.633 173.36 106.966 193.193 94.5 215.5Z" fill="#181818"/>
<path fill-rule="evenodd" clip-rule="evenodd" d="M134.5 148.5C135.552 148.351 136.552 148.517 137.5 149C134.942 150.626 132.275 151.626 129.5 152C131.233 150.811 132.9 149.644 134.5 148.5Z" fill="#636363"/>
<path fill-rule="evenodd" clip-rule="evenodd" d="M124.5 155.5C125.002 153.915 126.002 153.415 127.5 154C126.756 155.039 125.756 155.539 124.5 155.5Z" fill="#3D3D3D"/>
<path fill-rule="evenodd" clip-rule="evenodd" d="M45.5 184.5C43.473 184.338 41.473 184.505 39.5 185C40.252 185.671 40.586 186.504 40.5 187.5C38.896 186.713 38.229 185.38 38.5 183.5C41.059 183.198 43.393 183.532 45.5 184.5Z" fill="#3D3D3D"/>
<path fill-rule="evenodd" clip-rule="evenodd" d="M40.5 187.5C42.914 188.911 44.581 190.911 45.5 193.5C43.086 192.089 41.419 190.089 40.5 187.5Z" fill="#717171"/>
<path fill-rule="evenodd" clip-rule="evenodd" d="M45.5 184.5C57.335 187.502 66.501 194.168 73 204.5C75.78 209.062 78.28 213.728 80.5 218.5C74.697 211.184 69.03 203.684 63.5 196C57.944 191.393 51.944 187.56 45.5 184.5Z" fill="#1C1C1C"/>
<path fill-rule="evenodd" clip-rule="evenodd" d="M121.5 339.5C121.5 340.167 121.167 340.5 120.5 340.5C117.445 334.335 114.778 328.001 112.5 321.5C113.484 319.402 113.151 317.402 111.5 315.5C110.381 309.449 109.047 303.449 107.5 297.5C107.283 293.295 106.617 289.295 105.5 285.5C103.568 267.692 104.401 250.026 108 232.5C110.628 223.744 114.462 215.578 119.5 208C120.784 207.316 121.951 207.483 123 208.5C121.454 242.481 119.954 276.481 118.5 310.5C118.667 318.167 118.833 325.833 119 333.5C120.122 335.407 120.955 337.407 121.5 339.5Z" fill="#030303"/>
<path fill-rule="evenodd" clip-rule="evenodd" d="M12.5 214.5C14.717 215.369 17.0504 215.702 19.5 215.5C16.8333 216.167 14.1667 216.833 11.5 217.5C9.5183 217.005 7.5183 216.505 5.5 216C8.0356 215.814 10.369 215.314 12.5 214.5Z" fill="#6C6C6C"/>
<path fill-rule="evenodd" clip-rule="evenodd" d="M19.5 215.5C21.3057 216.024 22.9724 216.691 24.5 217.5C26.2143 218.738 28.214 219.405 30.5 219.5C35.333 222.418 40.333 225.084 45.5 227.5C65.564 243.896 83.564 262.23 99.5 282.5C100.079 285.331 101.412 287.664 103.5 289.5C104.338 289.842 104.672 290.508 104.5 291.5C104.992 293.819 105.992 295.819 107.5 297.5C109.047 303.449 110.381 309.449 111.5 315.5C110.778 315.082 110.278 314.416 110 313.5C109.601 313.728 109.435 314.062 109.5 314.5C106.798 310.088 104.464 305.421 102.5 300.5C102.33 299.178 102.663 298.011 103.5 297C102.934 296.005 102.267 295.172 101.5 294.5C100.66 292.147 99.326 290.147 97.5 288.5C80.258 261.759 57.925 240.259 30.5 224C24.3933 221.131 18.0599 218.965 11.5 217.5C14.1667 216.833 16.8333 216.167 19.5 215.5Z" fill="#F7F3F0"/>
<path fill-rule="evenodd" clip-rule="evenodd" d="M24.5 217.5C26.8984 217.259 28.898 217.926 30.5 219.5C28.214 219.405 26.2143 218.738 24.5 217.5Z" fill="#5E5E5E"/>
<path fill-rule="evenodd" clip-rule="evenodd" d="M80.5 218.5C82.416 219.665 83.249 221.332 83 223.5C81.628 222.09 80.795 220.423 80.5 218.5Z" fill="#3E3E3E"/>
<path fill-rule="evenodd" clip-rule="evenodd" d="M93.5 215.5C93.833 215.5 94.167 215.5 94.5 215.5C93.649 217.882 92.316 219.882 90.5 221.5C89.662 221.158 89.328 220.492 89.5 219.5C91.274 218.63 92.607 217.297 93.5 215.5Z" fill="#777777"/>
<path fill-rule="evenodd" clip-rule="evenodd" d="M30.5 219.5C36.26 220.878 41.26 223.545 45.5 227.5C40.333 225.084 35.333 222.418 30.5 219.5Z" fill="#606060"/>
<path fill-rule="evenodd" clip-rule="evenodd" d="M12.5 214.5C10.369 215.314 8.0356 215.814 5.5 216C7.5183 216.505 9.5183 217.005 11.5 217.5C18.0599 218.965 24.3933 221.131 30.5 224C57.925 240.259 80.258 261.759 97.5 288.5C96.662 288.842 96.328 289.508 96.5 290.5C86.167 276.833 74.167 264.833 60.5 254.5C64.167 256.5 67.833 258.5 71.5 260.5C56.668 244.84 39.668 232.007 20.5 222C13.4906 220.425 6.8239 218.258 0.5 215.5C4.4454 214.509 8.4454 214.176 12.5 214.5Z" fill="#171717"/>
<path fill-rule="evenodd" clip-rule="evenodd" d="M54.5 250.5C53.244 250.539 52.244 250.039 51.5 249C52.998 248.415 53.998 248.915 54.5 250.5Z" fill="#585858"/>
<path fill-rule="evenodd" clip-rule="evenodd" d="M45.5 227.5C59.437 237.412 72.603 248.412 85 260.5C90.6 267.376 95.433 274.71 99.5 282.5C83.564 262.23 65.564 243.896 45.5 227.5Z" fill="#1E1E1E"/>
<path fill-rule="evenodd" clip-rule="evenodd" d="M54.5 250.5C57.198 250.845 59.198 252.178 60.5 254.5C58.147 253.66 56.147 252.326 54.5 250.5Z" fill="#484848"/>
<path fill-rule="evenodd" clip-rule="evenodd" d="M106.5 315.5C86.328 299.505 67.161 282.172 49 263.5C43.375 257.211 38.541 250.378 34.5 243C34.667 241.5 35.5 240.667 37 240.5C47.085 244.536 46.918 245.202 36.5 242.5C36.954 245.14 38.121 247.473 40 249.5C45.333 255.5 50.667 261.5 56 267.5C73.361 283.029 90.194 299.029 106.5 315.5Z" fill="#1E1E1E"/>
<path fill-rule="evenodd" clip-rule="evenodd" d="M71.5 260.5C73.686 260.511 74.519 261.511 74 263.5C72.955 262.627 72.122 261.627 71.5 260.5Z" fill="#949494"/>
<path fill-rule="evenodd" clip-rule="evenodd" d="M99.5 282.5C102.58 283.042 103.913 285.375 103.5 289.5C101.412 287.664 100.079 285.331 99.5 282.5Z" fill="#4C4C4C"/>
<path fill-rule="evenodd" clip-rule="evenodd" d="M97.5 288.5C99.326 290.147 100.66 292.147 101.5 294.5C100.5 293.167 99.5 293.167 98.5 294.5C97.4 293.395 96.733 292.062 96.5 290.5C96.328 289.508 96.662 288.842 97.5 288.5Z" fill="#4E4E4E"/>
<path fill-rule="evenodd" clip-rule="evenodd" d="M105.5 285.5C106.617 289.295 107.283 293.295 107.5 297.5C105.992 295.819 104.992 293.819 104.5 291.5C105.461 289.735 105.795 287.735 105.5 285.5Z" fill="#9A9A9A"/>
<path fill-rule="evenodd" clip-rule="evenodd" d="M125.5 351.5C126.974 355.109 128.974 358.443 131.5 361.5C131.376 362.107 131.043 362.44 130.5 362.5C99.759 341.455 67.426 322.955 33.5 307C29.994 304.66 26.994 301.826 24.5 298.5C25.8132 296.174 27.8132 294.841 30.5 294.5C41.676 296.922 52.343 300.755 62.5 306C80.184 315.17 96.851 325.836 112.5 338C117.064 342.395 121.398 346.895 125.5 351.5Z" fill="#060606"/>
<path fill-rule="evenodd" clip-rule="evenodd" d="M101.5 294.5C102.267 295.172 102.934 296.005 103.5 297C102.663 298.011 102.33 299.178 102.5 300.5C100.808 298.795 99.475 296.795 98.5 294.5C99.5 293.167 100.5 293.167 101.5 294.5Z" fill="#8F8F8F"/>
<path fill-rule="evenodd" clip-rule="evenodd" d="M111.5 315.5C113.151 317.402 113.484 319.402 112.5 321.5C110.543 319.509 108.543 317.509 106.5 315.5C107.496 315.414 108.329 315.748 109 316.5C109.464 315.906 109.631 315.239 109.5 314.5C109.435 314.062 109.601 313.728 110 313.5C110.278 314.416 110.778 315.082 111.5 315.5Z" fill="#888888"/>
<path fill-rule="evenodd" clip-rule="evenodd" d="M59.5 339.5C58.244 339.539 57.244 339.039 56.5 338C57.998 337.415 58.998 337.915 59.5 339.5Z" fill="#3D3D3D"/>
<path fill-rule="evenodd" clip-rule="evenodd" d="M59.5 339.5C61.027 339.427 62.027 340.094 62.5 341.5C60.973 341.573 59.973 340.906 59.5 339.5Z" fill="#424242"/>
<path fill-rule="evenodd" clip-rule="evenodd" d="M121.5 339.5C129.058 352.27 136.891 364.937 145 377.5C163.844 401.855 180.677 427.522 195.5 454.5C182.356 435.566 169.189 416.566 156 397.5C152.964 394.296 149.797 391.296 146.5 388.5C148.028 388.483 148.528 387.816 148 386.5C142.378 378.217 136.545 370.217 130.5 362.5C131.043 362.44 131.376 362.107 131.5 361.5C128.974 358.443 126.974 355.109 125.5 351.5C124.105 347.71 122.438 344.043 120.5 340.5C121.167 340.5 121.5 340.167 121.5 339.5Z" fill="#181818"/>
<path fill-rule="evenodd" clip-rule="evenodd" d="M62.5 341.5C64.027 341.427 65.027 342.094 65.5 343.5C63.973 343.573 62.973 342.906 62.5 341.5Z" fill="#4B4B4B"/>
<path fill-rule="evenodd" clip-rule="evenodd" d="M65.5 343.5C67.404 343.738 68.738 344.738 69.5 346.5C67.596 346.262 66.262 345.262 65.5 343.5Z" fill="#505050"/>
<path fill-rule="evenodd" clip-rule="evenodd" d="M69.5 346.5C71.027 346.427 72.027 347.094 72.5 348.5C70.973 348.573 69.973 347.906 69.5 346.5Z" fill="#4C4C4C"/>
<path fill-rule="evenodd" clip-rule="evenodd" d="M43.5 331.5C47.105 331.799 50.439 332.965 53.5 335C54.696 335.654 54.696 336.154 53.5 336.5C50.712 335.022 47.878 333.689 45 332.5C45.126 335.098 46.126 337.431 48 339.5C54.007 346.848 61.173 352.681 69.5 357C95.046 369.273 120.713 381.273 146.5 393C138.202 391.533 130.202 388.866 122.5 385C103.833 376 85.167 367 66.5 358C57.713 352.88 50.547 346.047 45 337.5C43.872 335.655 43.372 333.655 43.5 331.5Z" fill="#1B1B1B"/>
<path fill-rule="evenodd" clip-rule="evenodd" d="M72.5 348.5C98.738 359.28 123.405 372.613 146.5 388.5C121.507 375.672 96.84 362.338 72.5 348.5Z" fill="#1D1D1D"/>
<path fill-rule="evenodd" clip-rule="evenodd" d="M195.5 454.5C197.25 455.659 198.25 457.326 198.5 459.5C196.75 458.341 195.75 456.674 195.5 454.5Z" fill="#363636"/>
<path fill-rule="evenodd" clip-rule="evenodd" d="M198.5 459.5C200.416 460.665 201.249 462.332 201 464.5C199.628 463.09 198.795 461.423 198.5 459.5Z" fill="#616161"/>
</svg>
