<svg width="437" height="477" viewBox="0 0 437 477" fill="none" xmlns="http://www.w3.org/2000/svg">
<g clip-path="url(#clip0_9_443)">
<path fill-rule="evenodd" clip-rule="evenodd" d="M258.5 224.5C259.409 218.522 259.575 212.522 259 206.5C258.167 205.5 257.333 204.5 256.5 203.5C254.234 222.697 246.567 239.363 233.5 253.5C234.365 254.583 235.365 254.749 236.5 254C238 252.5 239.5 251 241 249.5C238.842 255.036 234.675 258.369 228.5 259.5C223.841 258.339 221.008 255.339 220 250.5C219.333 245.5 219.333 240.5 220 235.5C222.91 225.975 224.076 216.308 223.5 206.5C218.5 209.333 213.5 212.167 208.5 215C191.615 219.203 174.615 222.87 157.5 226C155.413 226.792 153.579 227.959 152 229.5C139.434 247.067 128.101 265.4 118 284.5C116.818 287.856 116.651 291.19 117.5 294.5C147.665 289.056 176.665 279.89 204.5 267C207.993 265.996 211.159 266.496 214 268.5C214.738 272.261 214.405 275.928 213 279.5C205.832 291.839 198.166 303.839 190 315.5C173.174 334.51 153.008 349.01 129.5 359C113.793 363.68 98.459 369.347 83.5 376C80.37 378.128 77.537 380.628 75 383.5C68.871 401.553 62.5374 419.553 56 437.5C52.9918 448.563 49.9918 459.563 47 470.5C46.9621 460.424 47.9621 450.424 50 440.5C55.2839 421.647 61.9506 403.314 70 385.5C70.667 383.167 70.667 380.833 70 378.5C60.97 361.264 61.6367 344.264 72 327.5C80.2 313.3 92.033 303.467 107.5 298C112.194 292.626 113.527 286.46 111.5 279.5C103.353 276.593 95.019 275.76 86.5 277C88.025 275.991 89.692 275.491 91.5 275.5C97.179 274.339 102.846 274.173 108.5 275C106.444 273.481 104.11 272.647 101.5 272.5C95.337 273.038 89.337 273.704 83.5 274.5C71.859 275.849 60.1927 277.016 48.5 278C48 278.5 47.5 279 47 279.5C29.4724 274.642 16.8058 263.975 9 247.5C6.4634 236.605 4.4634 225.605 3 214.5C1.8787 207.559 2.7121 200.892 5.5 194.5C7.4213 193.359 9.4213 193.192 11.5 194C19.8333 200.333 28.1667 206.667 36.5 213C50.8449 219.782 65.512 225.782 80.5 231C90.514 236.678 99.68 243.511 108 251.5C110.79 257.659 113.124 263.992 115 270.5C116 268.167 117 265.833 118 263.5C121.875 242.097 123.208 220.43 122 198.5C119.287 194.908 116.453 191.408 113.5 188C97.947 179.447 86.114 167.281 78 151.5C61.3579 138.522 52.0245 121.522 50 100.5C47.1591 81.403 49.9924 63.2363 58.5 46C64.694 45.6811 69.527 48.1811 73 53.5C79.06 61.8965 84.727 70.5632 90 79.5C96.333 87.1667 103.333 94.1667 111 100.5C112.333 98.5 113.667 96.5 115 94.5C114.785 97.811 114.785 101.144 115 104.5C117.843 94.984 121.677 85.8173 126.5 77C126.333 76.5 126.167 76 126 75.5C122.501 79.8269 119.501 84.4936 117 89.5C116.333 88.5 116.333 87.5 117 86.5C120.414 80.0031 124.081 73.6697 128 67.5C135.969 58.5299 144.303 49.8632 153 41.5C158.417 32.5133 164.917 24.3467 172.5 17C173.167 16.3333 173.833 16.3333 174.5 17C178.859 23.0982 180.526 29.9316 179.5 37.5C179.268 65.0957 172.768 91.0957 160 115.5C154.71 123.059 148.71 130.059 142 136.5C139.473 140.221 137.473 144.221 136 148.5C135.496 163.702 132.496 178.369 127 192.5C126.667 206.833 126.333 221.167 126 235.5C124.993 245.545 123.993 255.545 123 265.5C127.516 258.297 131.85 250.964 136 243.5C143.04 236.129 149.706 228.462 156 220.5C163.34 205.132 170.674 189.798 178 174.5C182.199 169.966 186.699 165.799 191.5 162C196.975 161.491 201.975 162.824 206.5 166C208.5 166.667 210.5 166.667 212.5 166C218.753 161.957 224.92 157.79 231 153.5C232.527 147.585 232.861 141.585 232 135.5C227.959 123.639 224.292 111.639 221 99.5C220.242 93.1093 220.576 86.7759 222 80.5C231.728 59.3652 243.728 39.6985 258 21.5C262.865 16.3 268.032 11.4666 273.5 6.99999C274.944 6.21947 276.277 6.38614 277.5 7.49999C278.942 10.0496 280.108 12.7163 281 15.5C281.964 37.931 280.964 60.2644 278 82.5C274.121 94.8038 269.454 106.804 264 118.5C256.247 128.924 247.747 138.757 238.5 148C240.289 148.52 241.956 148.187 243.5 147C253.233 140.272 263.233 133.938 273.5 128C278.122 121.922 282.622 115.755 287 109.5C293.701 102.901 301.201 97.4007 309.5 93C323.726 85.5762 338.726 83.5762 354.5 87C380.012 95.1405 406.012 101.141 432.5 105C433.83 107.877 433.664 110.711 432 113.5C407.193 140.973 376.193 152.973 339 149.5C327.759 148.653 316.592 147.153 305.5 145C296.843 141.339 288.177 137.673 279.5 134C276.833 133.333 274.167 133.333 271.5 134C253.167 145.667 234.833 157.333 216.5 169C215.483 170.049 215.316 171.216 216 172.5C225.377 181.943 236.544 188.443 249.5 192C261.893 200.379 264.893 211.213 258.5 224.5Z" fill="#131313"/>
<path fill-rule="evenodd" clip-rule="evenodd" d="M226.5 187.5C228.435 186.291 230.435 186.458 232.5 188C236.104 190.708 238.604 194.208 240 198.5C240.571 206.886 240.571 215.22 240 223.5C241.117 222.051 241.784 220.384 242 218.5C242.667 211.167 242.667 203.833 242 196.5C240.813 194.956 240.48 193.289 241 191.5C242.522 193.741 243.855 196.074 245 198.5C244.981 196.893 244.815 195.226 244.5 193.5C252.884 196.607 255.717 202.607 253 211.5C249.251 228.667 241.085 243.334 228.5 255.5C228.167 252.833 227.833 250.167 227.5 247.5C229.661 231.225 230.495 214.891 230 198.5C229.502 194.509 228.335 190.842 226.5 187.5Z" fill="#F6F6F6"/>
<path fill-rule="evenodd" clip-rule="evenodd" d="M194.5 164.5C200.805 164.903 205.972 167.57 210 172.5C210.85 174.01 211.683 175.51 212.5 177C196.644 187.374 182.144 199.541 169 213.5C168.333 214.5 168.333 215.5 169 216.5C175.167 211.667 181.333 206.833 187.5 202C186.549 201.282 186.383 200.449 187 199.5C195.033 190.913 204.199 183.913 214.5 178.5C219.705 184.236 223.371 190.903 225.5 198.5C223.693 202.471 220.693 205.304 216.5 207C207.843 210.327 199.177 213.66 190.5 217C180.102 218.247 169.768 219.747 159.5 221.5C165.308 207.274 171.808 193.274 179 179.5C183.401 173.597 188.568 168.597 194.5 164.5Z" fill="#F8F8F8"/>
<path fill-rule="evenodd" clip-rule="evenodd" d="M196.5 173.5C197.552 173.351 198.552 173.517 199.5 174C191.191 179.973 184.691 187.473 180 196.5C180.514 192.124 182.181 188.124 185 184.5C188.729 180.602 192.562 176.935 196.5 173.5Z" fill="#1B1B1B"/>
<path fill-rule="evenodd" clip-rule="evenodd" d="M85.5 157.5C87.593 158.045 89.593 158.878 91.5 160C98.207 167.038 104.54 174.372 110.5 182C109.5 182.667 108.5 182.667 107.5 182C97.964 175.725 90.631 167.558 85.5 157.5Z" fill="#EDEDED"/>
<path fill-rule="evenodd" clip-rule="evenodd" d="M296.5 137.5C304.69 138.971 312.69 141.138 320.5 144C314.764 144.181 309.097 143.515 303.5 142C300.686 140.946 298.353 139.446 296.5 137.5Z" fill="#F7F3F0"/>
<path fill-rule="evenodd" clip-rule="evenodd" d="M410.5 127.5C411.239 127.369 411.906 127.536 412.5 128C401.868 137.589 389.535 142.756 375.5 143.5C383.995 140.792 392.328 137.625 400.5 134C404.411 132.556 407.744 130.389 410.5 127.5Z" fill="#F7F3F0"/>
<path fill-rule="evenodd" clip-rule="evenodd" d="M126.5 124.5C127.376 124.369 128.043 124.702 128.5 125.5C133.779 137.045 134.946 149.045 132 161.5C132.33 148.814 130.496 136.48 126.5 124.5Z" fill="#E6E6E6"/>
<path fill-rule="evenodd" clip-rule="evenodd" d="M166.5 93.5C167.043 93.56 167.376 93.8933 167.5 94.5C163.242 106.857 156.575 117.69 147.5 127C146.833 127.667 146.167 127.667 145.5 127C152.636 115.889 159.636 104.723 166.5 93.5Z" fill="#E7E7E7"/>
<path fill-rule="evenodd" clip-rule="evenodd" d="M338.5 92.5C347.604 92.2069 356.604 93.0403 365.5 95C385.862 100.539 406.529 104.539 427.5 107C428.059 107.725 428.392 108.558 428.5 109.5C426.446 114.391 423.113 118.224 418.5 121C393.464 138.123 365.798 146.123 335.5 145C324.167 142 312.833 139 301.5 136C296.812 134.559 292.479 132.559 288.5 130C290.126 128.181 292.126 126.848 294.5 126C299.323 125.17 303.989 123.836 308.5 122C303.833 122.333 299.167 122.667 294.5 123C310.282 114.042 327.282 110.042 345.5 111C352.884 113.104 353.218 112.437 346.5 109C327.635 107.773 309.968 111.773 293.5 121C290.203 123.295 287.203 125.962 284.5 129C283.056 129.781 281.723 129.614 280.5 128.5C293.826 106.836 313.159 94.8364 338.5 92.5Z" fill="#FAFAFA"/>
<path fill-rule="evenodd" clip-rule="evenodd" d="M318.5 118.5C320.857 118.337 323.19 118.503 325.5 119C321.019 120.644 316.352 121.311 311.5 121C313.833 119.957 316.166 119.124 318.5 118.5Z" fill="#303030"/>
<path fill-rule="evenodd" clip-rule="evenodd" d="M316.5 100.5C314.082 103.444 311.082 105.278 307.5 106C309.889 103.14 312.889 101.307 316.5 100.5Z" fill="#151515"/>
<path fill-rule="evenodd" clip-rule="evenodd" d="M316.5 100.5C319.137 98.5726 322.137 98.0726 325.5 99C322.522 99.696 319.522 100.196 316.5 100.5Z" fill="#1B1B1B"/>
<path fill-rule="evenodd" clip-rule="evenodd" d="M325.5 88.5C332.508 88.3337 339.508 88.5004 346.5 89C334.254 90.4119 322.254 93.0786 310.5 97C303.449 100.72 296.949 105.22 291 110.5C291.195 108.255 292.362 106.422 294.5 105C304.08 97.8792 314.414 92.3792 325.5 88.5Z" fill="#E3E3E3"/>
<path fill-rule="evenodd" clip-rule="evenodd" d="M225.5 76.5C226.649 76.7911 227.316 77.6244 227.5 79C226.963 81.9747 226.63 84.9747 226.5 88C227.437 97.8655 228.27 107.699 229 117.5C226.216 109.483 224.049 101.316 222.5 93C222.925 87.3785 223.925 81.8785 225.5 76.5Z" fill="#E2E2E2"/>
<path fill-rule="evenodd" clip-rule="evenodd" d="M53.5 70.5C54.3305 81.3257 54.8305 92.3257 55 103.5C55.9076 109.285 56.9076 114.951 58 120.5C57.3333 119.833 56.6667 119.167 56 118.5C51.0344 102.662 50.2011 86.6623 53.5 70.5Z" fill="#D1D1D1"/>
<path fill-rule="evenodd" clip-rule="evenodd" d="M62.5 50.5C66.981 52.4591 70.815 55.4591 74 59.5C78.667 66.8333 83.333 74.1667 88 81.5C97.049 91.7076 106.382 101.708 116 111.5C124.942 122.922 129.442 135.922 129.5 150.5C128.376 164.946 126.376 179.28 123.5 193.5C117.437 186.388 111.604 179.055 106 171.5C95.378 161.033 84.378 151.033 73 141.5C61.4233 125.837 55.9233 108.171 56.5 88.5C56.5905 78.1085 57.4239 67.7752 59 57.5C59.6529 54.8608 60.8196 52.5274 62.5 50.5Z" fill="#F7F3F0"/>
<path fill-rule="evenodd" clip-rule="evenodd" d="M95.5 107.5C117.28 128.504 125.947 154.171 121.5 184.5C119.731 171.928 115.731 160.094 109.5 149C109.667 148.5 109.833 148 110 147.5C113 153.5 116 159.5 119 165.5C119.433 144.362 112.099 126.362 97 111.5C96.209 110.255 95.709 108.922 95.5 107.5Z" fill="#1B1B1B"/>
<path fill-rule="evenodd" clip-rule="evenodd" d="M170.5 22.5C175.032 21.8782 177.198 23.8782 177 28.5C178.109 46.9623 175.776 64.9623 170 82.5C159.734 101.384 148.234 119.384 135.5 136.5C132.967 131.416 131.8 126.083 132 120.5C137.556 108.386 143.89 96.719 151 85.5C152.914 82.7025 153.914 79.7025 154 76.5C145.638 90.8511 137.305 105.184 129 119.5C125.034 115.864 121.368 111.864 118 107.5C121.007 91.4777 127.34 76.811 137 63.5C144.629 54.2026 152.629 45.2026 161 36.5C164.388 31.9523 167.555 27.2856 170.5 22.5Z" fill="#F9F9F9"/>
<path fill-rule="evenodd" clip-rule="evenodd" d="M137.5 83.5C139.355 83.272 140.188 83.9387 140 85.5C133.14 90.7039 128.14 97.3705 125 105.5C124.28 107.255 123.113 108.089 121.5 108C123.663 103.517 125.83 99.0175 128 94.5C130.712 90.3882 133.878 86.7216 137.5 83.5Z" fill="#191919"/>
<path fill-rule="evenodd" clip-rule="evenodd" d="M272.5 10.5C273.833 10.5 275.167 10.5 276.5 10.5C278.407 22.425 278.907 34.425 278 46.5C275.657 63.5552 272.991 80.5552 270 97.5C268.112 102.945 265.445 107.945 262 112.5C253.618 122.548 245.618 132.881 238 143.5C237.333 141.833 237.333 140.167 238 138.5C247.364 126.106 254.364 112.439 259 97.5C260.906 89.2532 261.573 80.9198 261 72.5C260.667 72.1667 260.333 71.8333 260 71.5C260.139 90.2842 255.306 107.618 245.5 123.5C244.605 120.625 244.938 117.792 246.5 115C245.833 113 245.167 113 244.5 115C243.441 121.679 241.108 127.846 237.5 133.5C233.088 121.732 230.588 109.399 230 96.5C227.859 80.8704 231.192 66.5371 240 53.5C249.513 38.1557 260.346 23.8223 272.5 10.5Z" fill="#F7F3F0"/>
<path fill-rule="evenodd" clip-rule="evenodd" d="M239.5 77.5C240.809 79.5706 241.475 82.0706 241.5 85C241.167 87.5 240.833 90 240.5 92.5C239.506 87.544 239.173 82.544 239.5 77.5Z" fill="#3B3B3B"/>
<path fill-rule="evenodd" clip-rule="evenodd" d="M8.50001 198.5C10.9892 198.298 13.3225 198.798 15.5 200C21.9208 206.425 28.9208 212.091 36.5 217C49.5 222.667 62.5 228.333 75.5 234C86.783 238.215 95.616 245.382 102 255.5C102.667 256.5 102.667 257.5 102 258.5C98.382 254.174 93.882 251.674 88.5 251C91.927 252.796 95.094 254.963 98 257.5C98.311 258.742 97.811 259.742 96.5 260.5C100.417 262.708 104.25 265.041 108 267.5C108.49 268.793 108.657 270.127 108.5 271.5C100.826 271.334 93.159 271.5 85.5 272C75.86 273.413 66.194 274.58 56.5 275.5C48.5627 275.289 40.8961 273.789 33.5 271C24.425 263.998 17.925 255.165 14 244.5C11.2645 236.96 8.93121 229.293 7.00001 221.5C6.26881 213.738 6.76881 206.071 8.50001 198.5Z" fill="#F7F3F0"/>
<path fill-rule="evenodd" clip-rule="evenodd" d="M226.5 214.5C227.649 214.791 228.316 215.624 228.5 217C227.298 228.97 225.798 240.804 224 252.5C222.022 249.876 221.188 246.876 221.5 243.5C223.009 233.8 224.675 224.134 226.5 214.5Z" fill="#DEDEDE"/>
<path fill-rule="evenodd" clip-rule="evenodd" d="M58.5 234.5C62.272 237.094 65.939 239.927 69.5 243C64.415 242.112 60.7486 239.278 58.5 234.5Z" fill="#212121"/>
<path fill-rule="evenodd" clip-rule="evenodd" d="M258.5 224.5C255.641 232.548 251.475 239.881 246 246.5C245.163 248.007 243.996 248.507 242.5 248C248.475 240.534 253.808 232.701 258.5 224.5Z" fill="#1F1F1F"/>
<path fill-rule="evenodd" clip-rule="evenodd" d="M100.5 248.5C107.235 252.091 110.402 257.758 110 265.5C106.978 259.672 103.811 254.005 100.5 248.5Z" fill="#DCDCDC"/>
<path fill-rule="evenodd" clip-rule="evenodd" d="M206.5 270.5C208.199 270.34 209.866 270.506 211.5 271C212.022 271.561 212.355 272.228 212.5 273C200.664 296.839 184.998 317.839 165.5 336C158.487 340.508 151.153 344.508 143.5 348C122.583 354.084 102.25 361.751 82.5 371C79.688 372.977 77.022 375.144 74.5 377.5C73.417 376.635 73.251 375.635 74 374.5C87.255 354.253 105.088 339.419 127.5 330C140.403 324.882 153.07 319.216 165.5 313C166.833 311.667 168.167 310.333 169.5 309C149.427 318.195 129.093 327.195 108.5 336C97.596 343.361 88.096 352.194 80 362.5C79.333 361.5 79.333 360.5 80 359.5C89.45 343.16 102.283 329.993 118.5 320C123.42 317.804 128.42 315.804 133.5 314C131.5 313.333 129.5 313.333 127.5 314C111.418 321.4 97.584 331.9 86 345.5C81.038 353.091 76.871 361.091 73.5 369.5C70.5 346.291 77.5 326.791 94.5 311C99.723 307.221 105.39 304.221 111.5 302C131.779 295.796 152.112 289.796 172.5 284C184.279 280.357 195.613 275.857 206.5 270.5Z" fill="#F9F9F9"/>
<path fill-rule="evenodd" clip-rule="evenodd" d="M91.5 275.5C89.052 274.527 86.385 274.194 83.5 274.5C89.337 273.704 95.337 273.038 101.5 272.5C104.11 272.647 106.444 273.481 108.5 275C102.846 274.173 97.179 274.339 91.5 275.5Z" fill="#C8C8C8"/>
<path fill-rule="evenodd" clip-rule="evenodd" d="M117.5 295.5C118.873 295.343 120.207 295.51 121.5 296C84.31 307.145 66.977 332.312 69.5 371.5C69.167 371.333 68.833 371.167 68.5 371C64.496 358.63 65.33 346.464 71 334.5C80.328 314.093 95.828 301.093 117.5 295.5Z" fill="#E6E6E6"/>
<path fill-rule="evenodd" clip-rule="evenodd" d="M111.5 310.5C112.552 310.351 113.552 310.517 114.5 311C107.833 315 101.167 319 94.5 323C91.315 325.884 88.482 329.051 86 332.5C86.95 328.468 89.117 324.968 92.5 322C98.897 318.141 105.23 314.308 111.5 310.5Z" fill="#1D1D1D"/>
<path fill-rule="evenodd" clip-rule="evenodd" d="M128.5 354.5C130.199 354.34 131.866 354.506 133.5 355C122.663 359.501 111.663 363.168 100.5 366C109.618 361.466 118.951 357.632 128.5 354.5Z" fill="#DFDFDF"/>
</g>
<defs>
<clipPath id="clip0_9_443">
<rect width="437" height="477" fill="white"/>
</clipPath>
</defs>
</svg>
